<svg xmlns="http://www.w3.org/2000/svg" width="1024" height="1024" viewBox="0 0 1024 1024" fill="none">
  <g fill="#000000" fill-rule="evenodd">
    <path d="M 399.0 195.5 L 396.0 193.5 L 393.0 195.5 L 388.5 191.0 L 391.5 186.0 L 391.0 182.5 L 386.0 184.5 L 384.0 182.5 L 380.5 184.0 L 383.5 179.0 L 383.0 176.5 L 380.5 177.0 L 382.5 175.0 L 380.5 172.0 L 384.5 168.0 L 376.0 173.5 L 375.5 172.0 L 380.5 164.0 L 406.0 138.5 L 386.0 151.5 L 378.0 159.5 L 372.0 159.5 L 360.5 169.0 L 365.5 160.0 L 383.0 141.5 L 407.0 123.5 L 430.0 111.5 L 466.0 98.5 L 502.0 93.5 L 531.0 94.5 L 552.5 98.0 L 502.0 97.5 L 466.5 105.0 L 500.0 100.5 L 530.0 99.5 L 571.0 105.5 L 607.0 117.5 L 611.5 120.0 L 603.0 119.5 L 595.0 115.5 L 573.0 109.5 L 544.0 105.5 L 520.0 105.5 L 497.5 110.0 L 498.0 111.5 L 505.0 109.5 L 511.0 111.5 L 518.0 110.5 L 550.0 113.5 L 611.0 131.5 L 639.0 145.5 L 651.0 154.5 L 674.5 176.0 L 687.5 193.0 L 686.0 194.5 L 671.0 177.5 L 651.0 162.5 L 636.0 155.5 L 635.0 153.5 L 631.0 154.5 L 632.0 152.5 L 616.0 144.5 L 591.0 137.5 L 589.5 139.0 L 594.0 143.5 L 605.0 148.5 L 607.0 152.5 L 618.0 157.5 L 619.5 159.0 L 617.5 160.0 L 622.5 163.0 L 605.0 154.5 L 593.0 150.5 L 581.0 149.5 L 584.5 148.0 L 580.0 146.5 L 575.0 147.5 L 568.0 144.5 L 559.0 144.5 L 542.0 140.5 L 529.0 140.5 L 526.0 138.5 L 525.0 140.5 L 515.0 139.5 L 494.0 142.5 L 483.0 147.5 L 472.0 149.5 L 469.0 152.5 L 467.0 151.5 L 455.0 157.5 L 399.0 195.5 Z"/><path d="M 558.0 100.5 L 552.5 99.0 L 557.0 98.5 L 558.0 100.5 Z"/><path d="M 564.0 100.5 L 560.5 100.0 L 564.0 100.5 Z"/><path d="M 568.0 101.5 L 564.5 101.0 L 568.0 101.5 Z"/><path d="M 460.5 108.0 L 463.5 107.0 L 458.5 108.0 L 460.5 108.0 Z"/><path d="M 495.5 111.0 L 496.0 109.5 L 492.5 111.0 L 495.5 111.0 Z"/><path d="M 446.5 125.0 L 488.0 113.5 L 491.5 111.0 L 473.0 114.5 L 449.0 122.5 L 446.5 125.0 Z"/><path d="M 614.0 121.5 L 611.5 121.0 L 614.0 121.5 Z"/><path d="M 619.0 123.5 L 614.5 122.0 L 618.0 121.5 L 619.0 123.5 Z"/><path d="M 623.0 125.5 L 621.5 125.0 L 623.0 125.5 Z"/><path d="M 625.0 126.5 L 623.5 126.0 L 625.0 126.5 Z"/><path d="M 627.0 127.5 L 625.5 127.0 L 627.0 127.5 Z"/><path d="M 629.0 128.5 L 627.5 128.0 L 629.0 128.5 Z"/><path d="M 619.0 131.5 L 618.0 129.5 L 619.0 131.5 Z"/><path d="M 597.5 137.0 L 594.5 137.0 L 597.5 137.0 Z"/><path d="M 510.0 144.5 L 507.5 144.0 L 511.0 141.5 L 523.5 141.0 L 521.0 143.5 L 510.0 144.5 Z"/><path d="M 527.0 142.5 L 524.5 142.0 L 527.0 142.5 Z"/><path d="M 537.0 143.5 L 534.5 142.0 L 537.0 141.5 L 537.0 143.5 Z"/><path d="M 504.0 144.5 L 505.0 142.5 L 504.0 144.5 Z"/><path d="M 534.0 143.5 L 530.5 143.0 L 534.0 143.5 Z"/><path d="M 502.0 145.5 L 498.5 145.0 L 502.0 143.5 L 502.0 145.5 Z"/><path d="M 595.5 146.0 L 591.5 144.0 L 595.5 146.0 Z"/><path d="M 619.5 144.0 L 617.5 144.0 L 619.5 144.0 Z"/><path d="M 548.0 145.5 L 546.5 145.0 L 548.0 145.5 Z"/><path d="M 556.0 145.5 L 553.5 145.0 L 556.0 145.5 Z"/><path d="M 622.5 145.0 L 620.5 145.0 L 622.5 145.0 Z"/><path d="M 561.0 146.5 L 559.5 146.0 L 561.0 146.5 Z"/><path d="M 580.0 148.5 L 577.5 148.0 L 580.0 148.5 Z"/><path d="M 587.5 149.0 L 585.5 149.0 L 587.5 149.0 Z"/><path d="M 473.0 154.5 L 471.5 154.0 L 473.0 154.5 Z"/><path d="M 682.0 155.5 L 680.5 155.0 L 682.0 155.5 Z"/><path d="M 707.0 180.5 L 688.0 160.5 L 707.5 179.0 L 707.0 180.5 Z"/><path d="M 373.0 163.5 L 373.0 161.5 L 373.0 163.5 Z"/><path d="M 437.5 163.0 L 438.0 161.5 L 435.5 163.0 L 437.5 163.0 Z"/><path d="M 433.5 166.0 L 435.5 165.0 L 431.5 166.0 L 433.5 166.0 Z"/><path d="M 634.0 168.5 L 632.5 168.0 L 634.0 168.5 Z"/><path d="M 424.5 172.0 L 425.0 170.5 L 422.5 172.0 L 424.5 172.0 Z"/><path d="M 466.0 405.5 L 463.5 405.0 L 465.0 403.5 L 454.0 402.5 L 433.0 403.5 L 431.5 402.0 L 433.5 400.0 L 431.5 398.0 L 435.5 397.0 L 429.5 392.0 L 432.0 391.5 L 436.0 395.5 L 443.0 392.5 L 445.0 389.5 L 455.0 387.5 L 459.0 381.5 L 470.0 377.5 L 476.5 371.0 L 476.0 369.5 L 484.5 364.0 L 478.5 365.0 L 483.0 357.5 L 479.0 360.5 L 476.5 360.0 L 492.0 351.5 L 488.5 351.0 L 496.5 345.0 L 487.5 346.0 L 501.0 339.5 L 500.5 337.0 L 505.0 333.5 L 506.0 334.5 L 510.5 332.0 L 507.0 330.5 L 501.0 335.5 L 497.0 333.5 L 495.0 337.5 L 493.0 337.5 L 494.5 335.0 L 491.5 334.0 L 502.0 325.5 L 512.0 321.5 L 508.0 320.5 L 505.0 322.5 L 493.0 322.5 L 488.0 324.5 L 481.0 324.5 L 479.0 322.5 L 458.0 327.5 L 440.0 339.5 L 426.0 345.5 L 412.0 358.5 L 393.0 368.5 L 387.5 375.0 L 383.5 386.0 L 386.5 388.0 L 383.0 390.5 L 353.0 390.5 L 334.0 397.5 L 330.0 396.5 L 331.5 398.0 L 328.0 399.5 L 313.5 402.0 L 360.0 375.5 L 379.5 361.0 L 376.0 360.5 L 350.0 374.5 L 324.0 385.5 L 290.0 397.5 L 280.5 398.0 L 331.0 374.5 L 355.0 365.5 L 408.0 337.5 L 429.5 330.0 L 429.0 328.5 L 418.0 326.5 L 404.0 318.5 L 399.5 313.0 L 405.0 314.5 L 406.5 313.0 L 391.5 303.0 L 389.5 300.0 L 391.5 299.0 L 388.5 297.0 L 393.5 297.0 L 389.5 294.0 L 390.5 293.0 L 374.5 287.0 L 373.0 280.5 L 378.0 279.5 L 379.0 281.5 L 379.0 276.5 L 387.0 276.5 L 376.0 272.5 L 374.0 273.5 L 356.0 263.5 L 354.0 265.5 L 352.5 264.0 L 353.5 262.0 L 340.5 247.0 L 338.0 240.5 L 348.0 246.5 L 366.0 250.5 L 374.5 250.0 L 352.0 242.5 L 337.0 234.5 L 332.5 230.0 L 326.5 220.0 L 324.0 208.5 L 352.0 224.5 L 361.5 226.0 L 338.5 207.0 L 331.5 197.0 L 330.0 186.5 L 348.0 199.5 L 366.0 207.5 L 350.5 190.0 L 347.5 177.0 L 351.0 176.5 L 360.0 185.5 L 389.0 207.5 L 430.0 226.5 L 451.0 238.5 L 473.5 254.0 L 487.5 268.0 L 506.5 295.0 L 515.0 302.5 L 519.0 301.5 L 521.0 303.5 L 529.0 304.5 L 545.0 303.5 L 580.0 283.5 L 591.0 280.5 L 604.0 280.5 L 620.0 285.5 L 630.0 297.5 L 652.0 301.5 L 669.5 309.0 L 651.0 317.5 L 624.0 319.5 L 605.0 326.5 L 587.0 336.5 L 579.5 344.0 L 575.0 352.5 L 572.0 353.5 L 573.5 351.0 L 572.0 350.5 L 560.0 365.5 L 538.0 381.5 L 502.0 397.5 L 494.0 399.5 L 491.0 397.5 L 487.0 400.5 L 484.0 399.5 L 471.0 404.5 L 469.0 402.5 L 469.5 404.0 L 466.0 405.5 Z"/><path d="M 407.5 188.0 L 420.5 177.0 L 419.0 176.5 L 415.0 180.5 L 414.0 178.5 L 406.5 186.0 L 407.5 188.0 Z"/><path d="M 716.0 192.5 L 707.5 182.0 L 708.0 180.5 L 716.5 191.0 L 716.0 192.5 Z"/><path d="M 390.0 186.5 L 390.0 184.5 L 390.0 186.5 Z"/><path d="M 718.0 195.5 L 717.0 192.5 L 718.0 195.5 Z"/><path d="M 720.0 198.5 L 720.0 196.5 L 720.0 198.5 Z"/><path d="M 694.0 243.5 L 687.0 235.5 L 672.0 225.5 L 644.0 217.5 L 622.0 216.5 L 607.0 218.5 L 585.0 224.5 L 576.0 229.5 L 569.0 229.5 L 561.5 219.0 L 570.0 211.5 L 594.0 202.5 L 624.0 199.5 L 639.0 200.5 L 658.0 206.5 L 677.0 217.5 L 690.5 231.0 L 695.5 240.0 L 694.0 243.5 Z"/><path d="M 691.0 201.5 L 691.0 199.5 L 691.0 201.5 Z"/><path d="M 722.0 201.5 L 722.0 199.5 L 722.0 201.5 Z"/><path d="M 723.0 204.5 L 723.0 201.5 L 723.0 204.5 Z"/><path d="M 630.5 205.0 L 625.5 205.0 L 630.5 205.0 Z"/><path d="M 694.0 206.5 L 694.0 204.5 L 694.0 206.5 Z"/><path d="M 725.0 209.5 L 725.0 206.5 L 725.0 209.5 Z"/><path d="M 727.0 212.5 L 726.0 209.5 L 727.0 212.5 Z"/><path d="M 698.0 212.5 L 698.0 210.5 L 698.0 212.5 Z"/><path d="M 728.0 215.5 L 728.0 212.5 L 728.0 215.5 Z"/><path d="M 729.0 217.5 L 729.0 215.5 L 729.0 217.5 Z"/><path d="M 731.0 222.5 L 730.0 217.5 L 731.0 222.5 Z"/><path d="M 703.0 220.5 L 703.0 218.5 L 703.0 220.5 Z"/><path d="M 704.0 222.5 L 704.0 220.5 L 704.0 222.5 Z"/><path d="M 732.0 225.5 L 732.0 222.5 L 732.0 225.5 Z"/><path d="M 527.0 513.5 L 505.0 513.5 L 480.0 510.5 L 476.5 508.0 L 480.0 505.5 L 456.0 507.5 L 457.0 505.5 L 436.0 499.5 L 437.5 498.0 L 434.0 498.5 L 434.0 496.5 L 431.0 498.5 L 427.0 497.5 L 426.0 495.5 L 424.0 496.5 L 413.0 493.5 L 417.5 492.0 L 414.0 489.5 L 421.5 491.0 L 397.0 479.5 L 379.0 465.5 L 371.0 462.5 L 362.0 453.5 L 360.0 452.5 L 359.0 454.5 L 349.0 448.5 L 339.5 438.0 L 337.0 432.5 L 348.0 443.5 L 351.0 443.5 L 355.0 449.5 L 358.5 449.0 L 345.5 434.0 L 339.5 430.0 L 327.5 412.0 L 331.0 408.5 L 347.0 408.5 L 374.0 434.5 L 398.0 454.5 L 398.5 453.0 L 377.5 432.0 L 378.5 430.0 L 374.5 426.0 L 376.0 424.5 L 382.5 430.0 L 382.0 432.5 L 383.0 430.5 L 397.0 443.5 L 399.0 441.5 L 403.0 445.5 L 404.5 445.0 L 391.0 430.5 L 386.0 430.5 L 383.5 426.0 L 380.5 425.0 L 380.0 421.5 L 386.0 422.5 L 389.0 426.5 L 390.5 425.0 L 387.5 423.0 L 388.0 420.5 L 393.0 423.5 L 399.0 423.5 L 399.0 419.5 L 408.0 417.5 L 412.0 421.5 L 413.0 419.5 L 414.0 422.5 L 417.0 422.5 L 436.5 435.0 L 430.0 433.5 L 427.0 430.5 L 422.5 431.0 L 430.0 436.5 L 439.0 439.5 L 463.0 453.5 L 486.0 459.5 L 491.0 458.5 L 510.0 460.5 L 511.0 458.5 L 512.0 461.5 L 517.0 461.5 L 518.0 459.5 L 525.0 460.5 L 527.0 458.5 L 530.0 460.5 L 533.0 458.5 L 534.0 460.5 L 541.0 459.5 L 535.5 458.0 L 541.0 455.5 L 544.0 456.5 L 562.0 452.5 L 568.0 453.5 L 567.0 451.5 L 571.0 452.5 L 583.0 448.5 L 585.5 449.0 L 564.5 456.0 L 576.0 454.5 L 586.0 450.5 L 588.0 451.5 L 596.0 447.5 L 598.5 448.0 L 596.0 446.5 L 588.0 449.5 L 587.5 448.0 L 591.0 445.5 L 606.0 440.5 L 601.5 444.0 L 604.0 446.5 L 640.5 423.0 L 634.0 429.5 L 611.5 445.0 L 613.0 445.5 L 634.0 433.5 L 644.0 425.5 L 645.5 426.0 L 642.0 430.5 L 655.0 421.5 L 678.5 397.0 L 693.5 378.0 L 703.5 362.0 L 709.5 347.0 L 714.5 319.0 L 715.5 298.0 L 717.0 297.5 L 718.5 300.0 L 714.5 338.0 L 712.5 340.0 L 710.5 353.0 L 695.5 380.0 L 696.0 381.5 L 706.0 364.5 L 698.5 381.0 L 696.0 383.5 L 694.0 381.5 L 687.5 394.0 L 679.5 403.0 L 652.0 426.5 L 621.0 448.5 L 602.5 458.0 L 620.0 450.5 L 631.0 442.5 L 632.5 443.0 L 630.0 445.5 L 638.0 441.5 L 639.0 443.5 L 641.5 442.0 L 640.0 440.5 L 661.0 427.5 L 680.5 410.0 L 703.5 381.0 L 712.5 364.0 L 713.0 359.5 L 711.5 363.0 L 709.5 363.0 L 714.5 356.0 L 713.5 353.0 L 715.5 353.0 L 720.5 336.0 L 719.5 332.0 L 721.5 332.0 L 721.5 329.0 L 719.5 330.0 L 719.5 327.0 L 722.0 327.5 L 723.5 325.0 L 721.5 322.0 L 723.5 321.0 L 722.5 314.0 L 724.5 310.0 L 724.5 296.0 L 726.5 291.0 L 725.5 259.0 L 727.5 255.0 L 723.0 237.5 L 729.5 248.0 L 742.5 291.0 L 744.5 316.0 L 742.5 319.0 L 741.5 336.0 L 743.5 335.0 L 746.5 316.0 L 745.5 288.0 L 739.5 253.0 L 734.5 232.0 L 732.5 230.0 L 733.0 225.5 L 742.5 251.0 L 750.5 288.0 L 750.5 343.0 L 746.5 367.0 L 737.5 395.0 L 726.5 417.0 L 709.5 442.0 L 686.0 466.5 L 668.0 479.5 L 656.0 484.5 L 651.0 484.5 L 626.0 497.5 L 624.0 496.5 L 616.0 499.5 L 610.0 499.5 L 604.0 502.5 L 600.5 501.0 L 614.5 496.0 L 612.0 495.5 L 582.0 506.5 L 577.0 505.5 L 564.0 509.5 L 527.0 513.5 Z"/><path d="M 670.0 255.5 L 657.0 247.5 L 635.0 241.5 L 617.0 241.5 L 605.0 245.5 L 595.0 251.5 L 591.0 250.5 L 585.5 244.0 L 590.0 238.5 L 602.0 230.5 L 619.0 226.5 L 634.0 227.5 L 643.0 229.5 L 660.0 238.5 L 671.5 252.0 L 670.0 255.5 Z"/><path d="M 459.5 320.0 L 484.5 313.0 L 480.0 309.5 L 470.5 307.0 L 471.0 305.5 L 474.5 306.0 L 469.5 303.0 L 469.5 298.0 L 477.0 299.5 L 478.5 297.0 L 463.5 288.0 L 465.0 286.5 L 469.5 288.0 L 466.0 284.5 L 471.5 286.0 L 466.0 283.5 L 464.0 280.5 L 470.5 282.0 L 454.5 268.0 L 455.0 266.5 L 459.5 268.0 L 454.5 262.0 L 457.0 260.5 L 460.0 265.5 L 462.5 264.0 L 454.0 254.5 L 444.0 247.5 L 417.0 232.5 L 411.0 231.5 L 410.0 229.5 L 408.5 231.0 L 423.0 241.5 L 428.5 249.0 L 426.5 252.0 L 428.5 254.0 L 426.0 254.5 L 404.0 241.5 L 398.5 241.0 L 420.5 254.0 L 417.5 256.0 L 422.0 259.5 L 408.5 256.0 L 410.0 259.5 L 415.0 260.5 L 423.5 268.0 L 420.0 270.5 L 412.0 266.5 L 411.5 268.0 L 417.0 272.5 L 430.0 277.5 L 431.0 279.5 L 432.0 278.5 L 440.0 283.5 L 449.5 286.0 L 416.5 280.0 L 426.0 283.5 L 428.5 286.0 L 426.0 285.5 L 425.5 287.0 L 429.0 290.5 L 432.0 289.5 L 442.0 294.5 L 445.5 298.0 L 443.5 299.0 L 445.5 301.0 L 440.0 300.5 L 440.5 303.0 L 452.0 305.5 L 456.5 309.0 L 446.5 314.0 L 452.5 318.0 L 449.5 319.0 L 451.0 320.5 L 459.5 320.0 Z"/><path d="M 521.0 297.5 L 515.0 296.5 L 504.5 287.0 L 492.5 268.0 L 467.5 242.0 L 466.5 237.0 L 460.5 231.0 L 461.0 229.5 L 469.0 233.5 L 493.0 255.5 L 492.5 252.0 L 486.5 246.0 L 484.5 239.0 L 477.5 231.0 L 483.0 232.5 L 496.0 242.5 L 524.5 271.0 L 524.5 278.0 L 526.5 279.0 L 523.5 284.0 L 524.5 293.0 L 521.0 297.5 Z"/><path d="M 313.0 372.5 L 310.5 372.0 L 301.5 341.0 L 297.5 294.0 L 301.5 261.0 L 304.5 256.0 L 303.5 254.0 L 305.0 251.5 L 306.0 253.5 L 307.5 253.0 L 307.5 243.0 L 315.0 234.5 L 318.5 238.0 L 319.5 242.0 L 318.5 256.0 L 320.5 257.0 L 320.5 253.0 L 322.5 254.0 L 324.0 248.5 L 324.5 253.0 L 329.0 253.5 L 331.5 259.0 L 334.5 275.0 L 333.5 280.0 L 336.5 285.0 L 335.5 288.0 L 337.5 291.0 L 341.5 322.0 L 343.5 323.0 L 343.5 328.0 L 348.5 342.0 L 349.5 339.0 L 341.5 310.0 L 341.5 305.0 L 343.5 305.0 L 342.0 302.5 L 340.5 304.0 L 341.5 298.0 L 338.5 291.0 L 339.5 289.0 L 334.5 268.0 L 336.0 263.5 L 344.5 284.0 L 344.5 289.0 L 350.5 305.0 L 352.5 315.0 L 351.5 319.0 L 353.5 320.0 L 352.5 322.0 L 355.5 323.0 L 362.5 348.0 L 360.5 348.0 L 359.0 352.5 L 354.0 353.5 L 346.0 359.5 L 329.0 366.5 L 324.5 366.0 L 317.0 353.5 L 318.5 363.0 L 316.5 364.0 L 318.0 365.5 L 319.0 363.5 L 320.5 366.0 L 317.5 367.0 L 318.0 370.5 L 313.5 364.0 L 311.5 357.0 L 313.5 355.0 L 311.5 353.0 L 312.5 352.0 L 309.5 351.0 L 309.5 343.0 L 307.0 339.5 L 308.5 355.0 L 313.5 367.0 L 312.5 370.0 L 314.0 368.5 L 316.5 370.0 L 313.0 372.5 Z"/><path d="M 321.0 246.5 L 321.0 244.5 L 321.0 246.5 Z"/><path d="M 346.5 248.0 L 343.5 247.0 L 346.5 248.0 Z"/><path d="M 309.5 254.0 L 311.0 249.5 L 309.5 250.0 L 309.5 254.0 Z"/><path d="M 652.0 269.5 L 633.0 264.5 L 606.0 266.5 L 603.5 260.0 L 608.0 254.5 L 611.0 253.5 L 618.0 251.5 L 631.0 251.5 L 638.0 253.5 L 649.0 260.5 L 652.5 265.0 L 652.0 269.5 Z"/><path d="M 433.0 254.5 L 431.5 254.0 L 433.0 254.5 Z"/><path d="M 307.5 257.0 L 306.0 254.5 L 305.5 257.0 L 307.5 257.0 Z"/><path d="M 405.5 257.0 L 405.0 254.5 L 399.5 255.0 L 405.5 257.0 Z"/><path d="M 435.0 255.5 L 433.5 255.0 L 435.0 255.5 Z"/><path d="M 434.0 258.5 L 429.5 256.0 L 433.0 256.5 L 434.0 258.5 Z"/><path d="M 319.5 271.0 L 320.5 259.0 L 318.0 258.5 L 316.5 264.0 L 319.5 271.0 Z"/><path d="M 455.0 260.5 L 455.0 258.5 L 455.0 260.5 Z"/><path d="M 410.5 267.0 L 407.5 267.0 L 410.5 267.0 Z"/><path d="M 412.5 272.0 L 409.5 271.0 L 412.5 272.0 Z"/><path d="M 526.0 275.5 L 526.0 273.5 L 526.0 275.5 Z"/><path d="M 377.0 277.5 L 376.0 275.5 L 378.5 276.0 L 377.0 277.5 Z"/><path d="M 527.0 277.5 L 527.0 275.5 L 527.0 277.5 Z"/><path d="M 391.5 281.0 L 381.5 280.0 L 391.5 281.0 Z"/><path d="M 387.5 283.0 L 382.0 281.5 L 379.5 283.0 L 387.5 283.0 Z"/><path d="M 378.5 285.0 L 374.5 283.0 L 378.5 285.0 Z"/><path d="M 465.0 284.5 L 463.5 284.0 L 465.0 284.5 Z"/><path d="M 463.0 287.5 L 461.5 287.0 L 463.0 287.5 Z"/><path d="M 607.5 297.0 L 609.5 293.0 L 605.0 290.5 L 598.5 296.0 L 600.0 297.5 L 607.5 297.0 Z"/><path d="M 402.5 297.0 L 393.5 295.0 L 398.0 297.5 L 402.5 297.0 Z"/><path d="M 477.0 298.5 L 473.0 298.5 L 472.5 296.0 L 477.0 298.5 Z"/><path d="M 396.5 299.0 L 394.5 299.0 L 396.5 299.0 Z"/><path d="M 726.5 300.0 L 726.0 298.5 L 726.5 300.0 Z"/><path d="M 434.5 303.0 L 434.0 301.5 L 434.5 303.0 Z"/><path d="M 303.5 307.0 L 303.0 303.5 L 301.5 307.0 L 303.5 307.0 Z"/><path d="M 644.5 312.0 L 656.5 310.0 L 628.0 304.5 L 624.5 311.0 L 626.0 312.5 L 644.5 312.0 Z"/><path d="M 305.5 323.0 L 306.5 319.0 L 305.0 313.5 L 305.5 323.0 Z"/><path d="M 408.5 318.0 L 406.5 318.0 L 408.5 318.0 Z"/><path d="M 354.5 327.0 L 354.0 324.5 L 354.5 327.0 Z"/><path d="M 299.0 330.5 L 298.0 328.5 L 299.0 330.5 Z"/><path d="M 498.0 336.5 L 496.5 336.0 L 498.0 336.5 Z"/><path d="M 306.5 338.0 L 306.0 336.5 L 306.5 338.0 Z"/><path d="M 715.0 344.5 L 715.5 339.0 L 718.0 336.5 L 718.5 339.0 L 715.0 344.5 Z"/><path d="M 741.5 341.0 L 741.0 339.5 L 741.5 341.0 Z"/><path d="M 311.0 356.5 L 311.0 353.5 L 311.0 356.5 Z"/><path d="M 391.0 417.5 L 388.0 417.5 L 385.5 415.0 L 389.0 412.5 L 374.0 415.5 L 362.5 412.0 L 365.5 411.0 L 364.5 409.0 L 368.0 405.5 L 407.5 389.0 L 400.0 385.5 L 396.0 386.5 L 399.5 383.0 L 393.5 381.0 L 395.5 374.0 L 413.0 358.5 L 408.0 368.5 L 443.0 353.5 L 444.5 354.0 L 437.0 361.5 L 434.5 361.0 L 435.0 364.5 L 438.0 362.5 L 440.0 364.5 L 443.0 362.5 L 444.0 366.5 L 449.0 367.5 L 450.0 365.5 L 453.0 367.5 L 470.5 359.0 L 469.5 361.0 L 472.5 362.0 L 469.0 364.5 L 466.5 364.0 L 467.0 366.5 L 470.0 365.5 L 470.5 367.0 L 464.5 371.0 L 468.0 369.5 L 469.5 371.0 L 451.0 381.5 L 453.5 383.0 L 452.0 384.5 L 451.0 383.5 L 449.0 385.5 L 448.0 383.5 L 448.0 386.5 L 446.0 384.5 L 440.0 387.5 L 432.0 387.5 L 428.0 389.5 L 426.0 387.5 L 425.0 388.5 L 424.0 385.5 L 417.0 385.5 L 417.5 390.0 L 422.0 389.5 L 423.5 392.0 L 416.5 404.0 L 404.0 414.5 L 397.0 416.5 L 391.0 415.5 L 391.0 417.5 Z"/><path d="M 712.0 355.5 L 712.0 353.5 L 712.0 355.5 Z"/><path d="M 560.0 371.5 L 569.5 355.0 L 572.0 354.5 L 573.5 356.0 L 572.5 358.0 L 560.0 371.5 Z"/><path d="M 708.0 362.5 L 707.5 360.0 L 710.0 356.5 L 708.0 362.5 Z"/><path d="M 441.0 362.5 L 439.5 362.0 L 440.0 359.5 L 442.5 360.0 L 441.0 362.5 Z"/><path d="M 485.5 361.0 L 486.0 359.5 L 483.5 361.0 L 485.5 361.0 Z"/><path d="M 430.5 363.0 L 432.5 362.0 L 430.5 363.0 Z"/><path d="M 707.0 364.5 L 707.0 362.5 L 707.0 364.5 Z"/><path d="M 465.5 365.0 L 463.5 365.0 L 465.5 365.0 Z"/><path d="M 473.0 366.5 L 472.0 364.5 L 474.5 365.0 L 473.0 366.5 Z"/><path d="M 420.5 368.0 L 424.5 366.0 L 422.0 365.5 L 420.5 368.0 Z"/><path d="M 492.5 369.0 L 493.0 367.5 L 492.5 369.0 Z"/><path d="M 413.5 370.0 L 414.0 368.5 L 413.5 370.0 Z"/><path d="M 480.5 370.0 L 481.0 368.5 L 479.5 369.0 L 480.5 370.0 Z"/><path d="M 556.0 371.5 L 556.0 368.5 L 556.0 371.5 Z"/><path d="M 471.5 385.0 L 493.0 376.5 L 489.5 375.0 L 493.0 374.5 L 496.5 371.0 L 489.0 372.5 L 466.5 384.0 L 467.0 385.5 L 471.5 385.0 Z"/><path d="M 556.0 375.5 L 554.5 375.0 L 559.0 371.5 L 556.0 375.5 Z"/><path d="M 470.0 373.5 L 468.5 373.0 L 470.0 373.5 Z"/><path d="M 554.0 376.5 L 552.5 376.0 L 554.0 376.5 Z"/><path d="M 503.0 404.5 L 500.5 404.0 L 527.0 392.5 L 551.5 378.0 L 549.0 381.5 L 531.0 392.5 L 503.0 404.5 Z"/><path d="M 469.5 381.0 L 467.5 381.0 L 469.5 381.0 Z"/><path d="M 456.0 382.5 L 453.5 382.0 L 456.0 382.5 Z"/><path d="M 412.5 387.0 L 410.5 387.0 L 412.5 387.0 Z"/><path d="M 442.0 391.5 L 434.5 391.0 L 443.0 388.5 L 442.0 391.5 Z"/><path d="M 694.0 390.5 L 692.5 390.0 L 694.0 388.5 L 694.0 390.5 Z"/><path d="M 692.0 392.5 L 691.0 390.5 L 692.0 392.5 Z"/><path d="M 693.5 435.0 L 710.5 412.0 L 716.0 398.5 L 693.5 435.0 Z"/><path d="M 481.0 404.5 L 478.5 404.0 L 485.5 401.0 L 481.0 404.5 Z"/><path d="M 458.0 405.5 L 455.5 405.0 L 458.0 405.5 Z"/><path d="M 476.0 406.5 L 473.5 406.0 L 478.5 405.0 L 476.0 406.5 Z"/><path d="M 498.0 406.5 L 496.5 406.0 L 498.0 404.5 L 500.5 405.0 L 498.0 406.5 Z"/><path d="M 451.0 408.5 L 449.5 408.0 L 451.0 408.5 Z"/><path d="M 466.0 410.5 L 464.5 410.0 L 466.0 410.5 Z"/><path d="M 444.0 411.5 L 442.5 411.0 L 444.0 411.5 Z"/><path d="M 672.0 414.5 L 669.5 414.0 L 673.0 412.5 L 672.0 414.5 Z"/><path d="M 381.0 420.5 L 379.5 420.0 L 381.0 420.5 Z"/><path d="M 395.0 421.5 L 393.5 421.0 L 395.0 421.5 Z"/><path d="M 413.5 427.0 L 411.5 426.0 L 413.5 427.0 Z"/><path d="M 402.5 436.0 L 392.0 426.5 L 390.5 427.0 L 402.5 436.0 Z"/><path d="M 337.0 431.5 L 334.5 430.0 L 338.0 428.5 L 337.0 431.5 Z"/><path d="M 377.0 430.5 L 375.5 430.0 L 377.0 430.5 Z"/><path d="M 438.0 436.5 L 436.5 436.0 L 438.0 436.5 Z"/><path d="M 608.0 440.5 L 606.5 440.0 L 608.0 440.5 Z"/><path d="M 406.5 444.0 L 403.5 442.0 L 406.5 444.0 Z"/><path d="M 623.5 444.0 L 626.5 442.0 L 623.5 444.0 Z"/><path d="M 634.0 442.5 L 632.5 442.0 L 634.0 442.5 Z"/><path d="M 458.0 447.5 L 449.5 444.0 L 457.0 445.5 L 458.0 447.5 Z"/><path d="M 619.5 447.0 L 621.0 444.5 L 617.5 447.0 L 619.5 447.0 Z"/><path d="M 608.5 447.0 L 609.0 445.5 L 608.5 447.0 Z"/><path d="M 414.5 450.0 L 410.5 447.0 L 413.0 450.5 L 414.5 450.0 Z"/><path d="M 462.0 449.5 L 458.5 448.0 L 462.0 447.5 L 462.0 449.5 Z"/><path d="M 689.5 454.0 L 694.0 448.5 L 687.5 454.0 L 689.5 454.0 Z"/><path d="M 573.0 450.5 L 571.5 450.0 L 573.0 450.5 Z"/><path d="M 610.5 451.0 L 611.0 449.5 L 608.5 451.0 L 610.5 451.0 Z"/><path d="M 358.5 452.0 L 356.5 451.0 L 358.5 452.0 Z"/><path d="M 482.0 454.5 L 480.5 454.0 L 482.0 454.5 Z"/><path d="M 489.0 455.5 L 486.5 455.0 L 489.0 455.5 Z"/><path d="M 492.0 456.5 L 489.5 456.0 L 492.0 456.5 Z"/><path d="M 499.0 457.5 L 494.0 457.5 L 493.5 456.0 L 499.0 457.5 Z"/><path d="M 677.5 466.0 L 687.0 455.5 L 676.5 465.0 L 677.5 466.0 Z"/><path d="M 563.5 457.0 L 560.5 457.0 L 563.5 457.0 Z"/><path d="M 517.0 459.5 L 514.5 459.0 L 517.0 459.5 Z"/><path d="M 497.5 461.0 L 494.5 461.0 L 497.5 461.0 Z"/><path d="M 506.5 461.0 L 504.5 461.0 L 506.5 461.0 Z"/><path d="M 520.5 461.0 L 518.5 461.0 L 520.5 461.0 Z"/><path d="M 671.5 467.0 L 672.0 465.5 L 671.5 467.0 Z"/><path d="M 369.0 470.5 L 366.5 469.0 L 367.0 467.5 L 369.0 470.5 Z"/><path d="M 659.5 474.0 L 669.5 468.0 L 664.0 469.5 L 659.5 474.0 Z"/><path d="M 382.0 470.5 L 381.0 468.5 L 382.0 470.5 Z"/><path d="M 384.0 472.5 L 383.0 470.5 L 384.0 472.5 Z"/><path d="M 387.0 474.5 L 384.5 473.0 L 386.0 472.5 L 387.0 474.5 Z"/><path d="M 471.5 485.0 L 474.0 483.5 L 478.0 484.5 L 478.5 483.0 L 462.0 479.5 L 449.5 474.0 L 449.5 476.0 L 453.0 478.5 L 454.0 477.5 L 460.0 481.5 L 471.5 485.0 Z"/><path d="M 655.5 483.0 L 657.5 482.0 L 655.5 483.0 Z"/><path d="M 471.0 483.5 L 468.5 483.0 L 471.0 483.5 Z"/><path d="M 400.0 485.5 L 398.5 485.0 L 400.0 485.5 Z"/><path d="M 405.0 486.5 L 401.5 485.0 L 405.0 486.5 Z"/><path d="M 409.0 489.5 L 406.5 488.0 L 408.0 487.5 L 409.0 489.5 Z"/><path d="M 405.0 489.5 L 403.5 489.0 L 405.0 489.5 Z"/><path d="M 424.5 494.0 L 422.5 493.0 L 423.0 491.5 L 420.5 493.0 L 424.5 494.0 Z"/><path d="M 617.5 495.0 L 615.5 495.0 L 617.5 495.0 Z"/><path d="M 430.0 500.5 L 417.5 496.0 L 428.0 498.5 L 430.0 500.5 Z"/><path d="M 443.0 504.5 L 430.5 501.0 L 435.0 500.5 L 443.0 504.5 Z"/><path d="M 484.5 504.0 L 474.0 500.5 L 467.5 501.0 L 472.0 503.5 L 484.5 504.0 Z"/><path d="M 458.5 502.0 L 456.5 502.0 L 458.5 502.0 Z"/><path d="M 462.5 504.0 L 460.5 503.0 L 462.5 504.0 Z"/><path d="M 197.0 679.5 L 195.5 679.0 L 196.5 676.0 L 214.0 648.5 L 202.5 659.0 L 197.5 668.0 L 193.5 670.0 L 210.5 643.0 L 227.5 623.0 L 216.0 625.5 L 199.0 624.5 L 188.5 609.0 L 196.0 604.5 L 248.0 593.5 L 254.5 588.0 L 280.5 556.0 L 316.0 509.5 L 321.0 509.5 L 331.0 504.5 L 339.0 506.5 L 346.5 514.0 L 346.5 519.0 L 339.5 531.0 L 320.5 581.0 L 335.0 580.5 L 340.5 569.0 L 348.0 565.5 L 354.0 565.5 L 359.5 568.0 L 354.0 581.5 L 372.0 572.5 L 387.0 568.5 L 391.5 569.0 L 355.5 598.0 L 334.0 630.5 L 326.0 630.5 L 320.5 624.0 L 321.5 616.0 L 332.5 589.0 L 316.0 594.5 L 303.5 633.0 L 297.0 645.5 L 295.5 643.0 L 296.5 648.0 L 293.0 652.5 L 296.0 630.5 L 281.0 662.5 L 275.5 651.0 L 277.5 649.0 L 287.5 613.0 L 292.5 603.0 L 290.0 601.5 L 276.0 607.5 L 261.0 610.5 L 256.5 615.0 L 255.5 620.0 L 236.5 641.0 L 213.0 664.5 L 212.0 663.5 L 210.0 665.5 L 209.0 663.5 L 206.5 670.0 L 205.0 669.5 L 197.0 679.5 Z"/><path d="M 445.0 505.5 L 443.5 505.0 L 445.0 505.5 Z"/><path d="M 465.5 506.0 L 463.5 506.0 L 465.5 506.0 Z"/><path d="M 472.0 508.5 L 468.5 508.0 L 472.0 508.5 Z"/><path d="M 574.0 508.5 L 572.5 508.0 L 574.0 508.5 Z"/><path d="M 572.0 509.5 L 570.5 509.0 L 572.0 509.5 Z"/><path d="M 642.0 633.5 L 638.5 631.0 L 634.5 622.0 L 641.0 597.5 L 625.0 608.5 L 604.0 630.5 L 601.0 631.5 L 596.5 626.0 L 610.5 590.0 L 650.5 516.0 L 655.0 514.5 L 664.0 519.5 L 668.5 524.0 L 669.5 529.0 L 645.5 560.0 L 623.5 596.0 L 625.0 596.5 L 636.0 585.5 L 651.0 574.5 L 659.0 574.5 L 662.5 578.0 L 662.5 585.0 L 649.0 618.5 L 663.5 603.0 L 676.0 577.5 L 686.0 580.5 L 688.5 585.0 L 686.5 592.0 L 666.5 629.0 L 665.0 630.5 L 661.5 629.0 L 660.5 621.0 L 662.0 609.5 L 642.0 633.5 Z"/><path d="M 684.0 631.5 L 682.5 631.0 L 681.5 624.0 L 689.5 602.0 L 724.5 519.0 L 727.0 514.5 L 732.0 515.5 L 741.0 520.5 L 746.5 527.0 L 722.5 567.0 L 714.5 586.0 L 741.0 568.5 L 744.0 567.5 L 751.0 571.5 L 750.5 578.0 L 744.0 583.5 L 735.0 589.5 L 721.5 595.0 L 728.0 604.5 L 738.0 610.5 L 746.0 610.5 L 746.5 612.0 L 741.5 620.0 L 735.0 624.5 L 721.0 617.5 L 707.0 605.5 L 693.0 627.5 L 692.5 624.0 L 698.5 609.0 L 696.5 610.0 L 690.5 624.0 L 684.0 631.5 Z"/><path d="M 503.0 640.5 L 500.5 640.0 L 517.0 629.5 L 583.5 597.0 L 524.0 584.5 L 519.5 578.0 L 523.5 570.0 L 521.5 566.0 L 533.0 555.5 L 557.0 539.5 L 582.0 527.5 L 597.0 522.5 L 619.0 520.5 L 627.0 523.5 L 632.5 529.0 L 633.5 535.0 L 631.5 539.0 L 610.0 556.5 L 608.5 556.0 L 615.5 545.0 L 616.0 538.5 L 607.0 540.5 L 588.0 549.5 L 551.5 573.0 L 577.0 576.5 L 596.0 583.5 L 606.5 594.0 L 605.5 599.0 L 601.0 604.5 L 587.0 614.5 L 567.0 624.5 L 548.0 630.5 L 543.0 630.5 L 529.0 636.5 L 524.5 636.0 L 544.0 628.5 L 549.5 625.0 L 548.0 624.5 L 503.0 640.5 Z"/><path d="M 780.0 559.5 L 774.0 555.5 L 766.5 559.0 L 773.5 546.0 L 776.5 532.0 L 783.0 530.5 L 794.0 535.5 L 797.5 541.0 L 793.5 547.0 L 780.0 559.5 Z"/><path d="M 279.5 588.0 L 296.5 584.0 L 311.0 545.5 L 275.5 588.0 L 279.5 588.0 Z"/><path d="M 686.0 572.5 L 679.0 571.5 L 675.5 568.0 L 680.5 555.0 L 680.5 548.0 L 683.0 546.5 L 693.0 549.5 L 697.5 554.0 L 694.5 563.0 L 686.0 572.5 Z"/><path d="M 313.0 706.5 L 300.0 706.5 L 292.5 704.0 L 300.0 703.5 L 299.5 702.0 L 302.0 700.5 L 293.0 701.5 L 294.0 699.5 L 282.5 700.0 L 291.0 697.5 L 274.5 698.0 L 283.0 695.5 L 251.0 695.5 L 249.5 694.0 L 251.5 692.0 L 247.0 692.5 L 246.5 691.0 L 253.0 686.5 L 240.0 689.5 L 237.5 688.0 L 262.0 679.5 L 267.0 679.5 L 294.0 671.5 L 385.0 661.5 L 393.5 662.0 L 388.5 664.0 L 389.0 665.5 L 394.5 665.0 L 394.5 670.0 L 390.5 677.0 L 392.0 677.5 L 394.5 676.0 L 405.5 646.0 L 431.5 610.0 L 425.5 605.0 L 423.5 600.0 L 423.5 590.0 L 427.5 573.0 L 434.0 571.5 L 439.5 576.0 L 436.5 598.0 L 438.0 599.5 L 451.5 582.0 L 461.0 565.5 L 474.5 570.0 L 474.5 573.0 L 408.5 670.0 L 409.0 671.5 L 420.0 660.5 L 449.0 659.5 L 448.0 661.5 L 430.5 664.0 L 439.5 666.0 L 433.0 669.5 L 444.5 669.0 L 440.0 672.5 L 433.0 671.5 L 429.5 673.0 L 434.5 674.0 L 431.5 676.0 L 432.0 677.5 L 438.0 677.5 L 443.0 679.5 L 443.0 681.5 L 425.0 685.5 L 419.0 688.5 L 400.0 690.5 L 385.0 694.5 L 313.0 706.5 Z"/><path d="M 757.0 633.5 L 756.0 627.5 L 752.0 633.5 L 749.5 631.0 L 749.5 619.0 L 751.5 614.0 L 750.5 609.0 L 752.5 609.0 L 767.5 567.0 L 774.0 567.5 L 782.0 571.5 L 788.5 578.0 L 788.5 581.0 L 774.5 605.0 L 765.5 616.0 L 757.0 633.5 Z"/><path d="M 471.0 626.5 L 465.0 626.5 L 457.5 620.0 L 456.5 612.0 L 460.5 599.0 L 470.5 584.0 L 482.0 573.5 L 494.0 567.5 L 505.0 568.5 L 510.5 575.0 L 504.5 600.0 L 505.5 611.0 L 516.0 607.5 L 525.0 600.5 L 525.5 603.0 L 520.5 610.0 L 506.0 623.5 L 499.0 624.5 L 495.0 622.5 L 491.5 617.0 L 491.5 610.0 L 490.0 609.5 L 479.0 622.5 L 471.0 626.5 Z"/><path d="M 376.0 627.5 L 367.0 625.5 L 361.5 618.0 L 361.5 611.0 L 364.5 603.0 L 371.5 593.0 L 385.0 580.5 L 400.0 571.5 L 412.0 569.5 L 419.5 577.0 L 419.5 581.0 L 411.5 601.0 L 409.5 615.0 L 411.0 616.5 L 423.0 609.5 L 423.5 611.0 L 416.5 620.0 L 408.0 626.5 L 401.0 624.5 L 396.5 619.0 L 396.5 615.0 L 394.0 614.5 L 384.0 623.5 L 376.0 627.5 Z"/><path d="M 469.5 613.0 L 478.0 607.5 L 487.5 598.0 L 495.5 585.0 L 495.0 582.5 L 488.0 586.5 L 476.5 598.0 L 470.5 607.0 L 469.5 613.0 Z"/><path d="M 377.5 614.0 L 383.0 611.5 L 396.5 599.0 L 402.0 587.5 L 392.0 592.5 L 383.5 600.0 L 375.5 611.0 L 375.5 614.0 L 377.5 614.0 Z"/><path d="M 549.5 618.0 L 550.0 616.5 L 549.5 618.0 Z"/><path d="M 232.5 630.0 L 233.0 628.5 L 232.5 630.0 Z"/><path d="M 524.0 637.5 L 522.5 637.0 L 524.0 637.5 Z"/><path d="M 544.0 685.5 L 537.0 685.5 L 531.0 681.5 L 529.5 673.0 L 533.5 653.0 L 537.5 642.0 L 541.0 638.5 L 551.5 643.0 L 547.0 658.5 L 556.0 652.5 L 566.0 652.5 L 570.5 658.0 L 570.5 666.0 L 568.5 670.0 L 555.0 680.5 L 544.0 685.5 Z"/><path d="M 456.0 698.5 L 446.5 696.0 L 450.5 691.0 L 466.0 640.5 L 474.0 641.5 L 478.5 645.0 L 477.5 654.0 L 471.5 669.0 L 469.0 681.5 L 483.0 678.5 L 490.0 679.5 L 491.5 678.0 L 489.5 674.0 L 495.5 663.0 L 509.0 654.5 L 521.0 653.5 L 526.5 658.0 L 526.5 663.0 L 524.5 666.0 L 524.5 681.0 L 521.0 687.5 L 514.5 684.0 L 513.0 677.5 L 500.0 685.5 L 456.0 698.5 Z"/><path d="M 779.0 667.5 L 721.0 662.5 L 715.0 660.5 L 635.0 657.5 L 602.0 653.5 L 587.0 654.5 L 586.5 653.0 L 694.0 656.5 L 756.0 662.5 L 779.0 667.5 Z"/><path d="M 543.5 677.0 L 559.0 667.5 L 561.5 662.0 L 557.0 661.5 L 546.0 666.5 L 540.5 677.0 L 543.5 677.0 Z"/><path d="M 673.0 673.5 L 603.0 672.5 L 596.5 671.0 L 599.0 669.5 L 587.0 669.5 L 589.0 666.5 L 580.5 664.0 L 586.0 661.5 L 650.0 662.5 L 719.0 667.5 L 754.5 672.0 L 709.0 671.5 L 693.0 669.5 L 692.5 671.0 L 695.0 672.5 L 673.0 673.5 Z"/><path d="M 500.5 677.0 L 512.5 667.0 L 513.0 663.5 L 505.0 666.5 L 500.5 671.0 L 497.5 676.0 L 498.0 677.5 L 500.5 677.0 Z"/><path d="M 209.0 667.5 L 209.0 665.5 L 209.0 667.5 Z"/><path d="M 613.5 668.0 L 606.5 668.0 L 613.5 668.0 Z"/><path d="M 663.5 669.0 L 645.0 667.5 L 639.5 669.0 L 663.5 669.0 Z"/><path d="M 784.0 668.5 L 779.5 668.0 L 784.0 668.5 Z"/><path d="M 622.5 669.0 L 619.5 669.0 L 622.5 669.0 Z"/><path d="M 631.5 669.0 L 629.5 669.0 L 631.5 669.0 Z"/><path d="M 635.5 669.0 L 632.5 669.0 L 635.5 669.0 Z"/><path d="M 677.5 670.0 L 670.0 668.5 L 668.5 670.0 L 677.5 670.0 Z"/><path d="M 691.5 671.0 L 689.0 669.5 L 678.5 671.0 L 691.5 671.0 Z"/><path d="M 592.0 672.5 L 591.0 670.5 L 592.0 672.5 Z"/><path d="M 405.5 675.0 L 408.5 673.0 L 406.0 672.5 L 405.5 675.0 Z"/><path d="M 351.5 678.0 L 361.0 675.5 L 373.0 675.5 L 374.5 674.0 L 359.0 673.5 L 337.5 678.0 L 351.5 678.0 Z"/><path d="M 380.5 675.0 L 378.5 675.0 L 380.5 675.0 Z"/><path d="M 430.5 677.0 L 427.5 677.0 L 430.5 677.0 Z"/><path d="M 437.5 682.0 L 432.5 682.0 L 437.5 682.0 Z"/><path d="M 430.5 683.0 L 423.5 683.0 L 430.5 683.0 Z"/><path d="M 418.5 686.0 L 422.5 684.0 L 414.5 685.0 L 418.5 686.0 Z"/><path d="M 256.5 692.0 L 256.0 690.5 L 256.5 692.0 Z"/>
  </g>
</svg>