<svg xmlns="http://www.w3.org/2000/svg" width="1024" height="1024" viewBox="0 0 1024 1024" fill="none">
  <g fill="#000000" fill-rule="evenodd">
    <path d="M 343.0 344.5 L 339.0 344.5 L 338.0 342.5 L 333.0 344.5 L 333.5 343.0 L 326.5 337.0 L 330.5 329.0 L 330.0 324.5 L 322.0 327.5 L 320.0 324.5 L 315.0 327.5 L 312.5 326.0 L 316.5 323.0 L 317.5 315.0 L 310.5 317.0 L 315.5 312.0 L 312.5 307.0 L 317.0 301.5 L 309.0 307.5 L 305.0 308.5 L 304.5 307.0 L 308.5 303.0 L 312.5 294.0 L 354.0 252.5 L 322.0 273.5 L 308.0 286.5 L 305.0 285.5 L 303.0 288.5 L 300.0 286.5 L 295.0 289.5 L 281.0 303.5 L 279.5 303.0 L 289.5 286.0 L 315.0 258.5 L 355.0 228.5 L 394.0 208.5 L 403.0 206.5 L 412.0 201.5 L 454.0 186.5 L 480.0 181.5 L 510.0 179.5 L 557.0 180.5 L 561.0 182.5 L 598.0 186.5 L 602.5 190.0 L 570.0 185.5 L 514.0 185.5 L 482.0 190.5 L 480.0 192.5 L 466.0 193.5 L 449.5 199.0 L 483.0 193.5 L 496.0 193.5 L 498.0 191.5 L 507.0 190.5 L 536.0 190.5 L 553.0 188.5 L 571.0 191.5 L 584.0 191.5 L 636.0 201.5 L 667.0 212.5 L 673.0 216.5 L 680.0 217.5 L 689.0 222.5 L 699.0 224.5 L 702.0 228.5 L 632.0 206.5 L 578.0 198.5 L 542.0 198.5 L 537.0 200.5 L 517.0 201.5 L 507.0 203.5 L 503.5 206.0 L 505.0 208.5 L 512.0 207.5 L 515.0 204.5 L 518.0 207.5 L 524.0 206.5 L 526.0 208.5 L 537.0 206.5 L 539.0 208.5 L 567.0 208.5 L 584.0 212.5 L 589.0 211.5 L 602.0 216.5 L 649.0 227.5 L 687.0 240.5 L 730.0 261.5 L 755.0 279.5 L 791.5 313.0 L 805.5 330.0 L 812.5 342.0 L 810.0 342.5 L 799.5 329.0 L 785.0 315.5 L 763.0 297.5 L 753.0 291.5 L 736.0 283.5 L 728.0 277.5 L 723.0 277.5 L 719.0 273.5 L 700.0 263.5 L 655.0 250.5 L 652.5 253.0 L 660.0 259.5 L 675.0 268.5 L 678.0 268.5 L 681.0 274.5 L 700.0 283.5 L 701.0 286.5 L 697.0 284.5 L 695.5 286.0 L 707.5 292.0 L 701.0 291.5 L 693.0 286.5 L 692.0 283.5 L 689.0 284.5 L 679.0 278.5 L 665.0 275.5 L 658.0 271.5 L 651.0 272.5 L 638.5 269.0 L 644.0 268.5 L 644.0 266.5 L 630.0 266.5 L 617.0 261.5 L 615.0 263.5 L 604.0 262.5 L 602.0 260.5 L 575.0 255.5 L 556.0 256.5 L 550.0 252.5 L 548.0 252.5 L 547.0 255.5 L 531.0 254.5 L 500.0 258.5 L 485.0 264.5 L 483.0 263.5 L 480.0 266.5 L 478.0 265.5 L 467.0 268.5 L 460.0 271.5 L 456.0 275.5 L 453.0 273.5 L 449.0 277.5 L 437.0 281.5 L 374.0 322.5 L 360.5 334.0 L 362.5 336.0 L 361.0 337.5 L 359.0 335.5 L 354.0 337.5 L 348.0 343.5 L 343.0 344.5 Z"/><path d="M 619.0 191.5 L 605.5 189.0 L 612.0 188.5 L 619.0 191.5 Z"/><path d="M 442.5 203.0 L 447.5 201.0 L 446.0 199.5 L 439.5 203.0 L 442.5 203.0 Z"/><path d="M 499.5 208.0 L 501.0 205.5 L 495.5 208.0 L 499.5 208.0 Z"/><path d="M 425.5 230.0 L 439.0 224.5 L 459.0 219.5 L 463.0 216.5 L 467.0 217.5 L 475.0 212.5 L 478.0 213.5 L 488.0 211.5 L 493.5 208.0 L 491.0 206.5 L 488.0 208.5 L 480.0 208.5 L 444.0 221.5 L 439.0 221.5 L 418.5 230.0 L 425.5 230.0 Z"/><path d="M 506.5 210.0 L 504.5 210.0 L 506.5 210.0 Z"/><path d="M 714.0 234.5 L 704.5 230.0 L 708.0 229.5 L 714.0 232.5 L 714.0 234.5 Z"/><path d="M 720.0 237.5 L 714.5 235.0 L 717.0 234.5 L 720.0 237.5 Z"/><path d="M 725.0 239.5 L 721.5 237.0 L 723.0 236.5 L 725.0 239.5 Z"/><path d="M 702.0 240.5 L 698.5 239.0 L 702.0 238.5 L 702.0 240.5 Z"/><path d="M 665.5 250.0 L 660.5 249.0 L 661.0 250.5 L 665.5 250.0 Z"/><path d="M 671.5 252.0 L 672.0 250.5 L 670.5 251.0 L 671.5 252.0 Z"/><path d="M 649.5 253.0 L 647.5 253.0 L 649.5 253.0 Z"/><path d="M 522.0 262.5 L 519.5 262.0 L 524.0 257.5 L 531.0 257.5 L 534.0 255.5 L 537.0 257.5 L 544.5 256.0 L 542.0 260.5 L 538.0 258.5 L 536.0 260.5 L 525.0 260.5 L 522.0 262.5 Z"/><path d="M 552.0 258.5 L 547.5 258.0 L 551.0 256.5 L 552.0 258.5 Z"/><path d="M 569.0 260.5 L 564.5 258.0 L 567.0 256.5 L 569.0 260.5 Z"/><path d="M 514.0 261.5 L 512.5 260.0 L 515.0 258.5 L 514.0 261.5 Z"/><path d="M 562.0 260.5 L 561.0 258.5 L 562.0 260.5 Z"/><path d="M 696.5 260.0 L 696.0 258.5 L 696.5 260.0 Z"/><path d="M 575.0 261.5 L 572.5 260.0 L 574.0 259.5 L 575.0 261.5 Z"/><path d="M 511.0 263.5 L 506.0 263.5 L 505.5 262.0 L 511.0 260.5 L 511.0 263.5 Z"/><path d="M 579.0 262.5 L 577.5 262.0 L 579.0 260.5 L 579.0 262.5 Z"/><path d="M 662.5 265.0 L 661.0 262.5 L 656.5 261.0 L 662.5 265.0 Z"/><path d="M 701.5 261.0 L 698.5 261.0 L 701.5 261.0 Z"/><path d="M 585.0 263.5 L 582.5 263.0 L 584.0 261.5 L 585.0 263.5 Z"/><path d="M 597.0 264.5 L 593.5 263.0 L 597.0 261.5 L 598.5 263.0 L 597.0 264.5 Z"/><path d="M 706.5 263.0 L 704.5 262.0 L 706.5 263.0 Z"/><path d="M 518.0 263.5 L 516.5 263.0 L 518.0 263.5 Z"/><path d="M 606.0 265.5 L 603.5 264.0 L 606.0 263.5 L 606.0 265.5 Z"/><path d="M 617.0 265.5 L 616.0 263.5 L 617.0 265.5 Z"/><path d="M 637.0 268.5 L 634.5 267.0 L 637.0 266.5 L 637.0 268.5 Z"/><path d="M 648.5 270.0 L 649.0 268.5 L 645.5 269.0 L 648.5 270.0 Z"/><path d="M 461.0 279.5 L 459.5 278.0 L 463.0 276.5 L 463.5 278.0 L 461.0 279.5 Z"/><path d="M 721.0 278.5 L 720.0 276.5 L 721.0 278.5 Z"/><path d="M 864.0 346.5 L 836.5 312.0 L 800.0 276.5 L 817.0 289.5 L 841.5 314.0 L 859.5 337.0 L 864.0 346.5 Z"/><path d="M 301.0 292.5 L 299.5 291.0 L 302.0 289.5 L 301.0 292.5 Z"/><path d="M 399.5 297.0 L 406.5 291.0 L 405.0 290.5 L 396.5 297.0 L 399.5 297.0 Z"/><path d="M 725.0 300.5 L 723.5 300.0 L 725.0 300.5 Z"/><path d="M 383.5 307.0 L 386.5 305.0 L 384.0 304.5 L 381.5 307.0 L 383.5 307.0 Z"/><path d="M 317.5 308.0 L 317.0 306.5 L 317.5 308.0 Z"/><path d="M 301.0 312.5 L 301.0 310.5 L 301.0 312.5 Z"/><path d="M 468.0 688.5 L 464.5 687.0 L 483.5 677.0 L 481.0 676.5 L 477.0 679.5 L 461.0 684.5 L 457.0 681.5 L 457.5 684.0 L 452.0 686.5 L 447.5 686.0 L 451.5 684.0 L 450.0 682.5 L 434.0 683.5 L 432.0 681.5 L 426.0 683.5 L 421.0 681.5 L 415.0 683.5 L 399.0 683.5 L 396.5 680.0 L 399.0 679.5 L 400.5 676.0 L 398.0 676.5 L 395.5 674.0 L 402.5 672.0 L 392.5 664.0 L 396.0 663.5 L 404.0 669.5 L 410.0 665.5 L 414.0 665.5 L 417.5 662.0 L 417.0 660.5 L 421.0 660.5 L 427.0 656.5 L 434.0 656.5 L 440.0 647.5 L 445.0 647.5 L 449.0 643.5 L 459.0 640.5 L 468.5 630.0 L 468.0 627.5 L 471.0 627.5 L 482.5 619.0 L 475.0 619.5 L 473.0 621.5 L 471.5 620.0 L 475.5 617.0 L 475.5 614.0 L 480.5 610.0 L 480.0 608.5 L 473.0 613.5 L 469.5 612.0 L 479.0 605.5 L 495.0 598.5 L 494.0 596.5 L 491.0 598.5 L 488.5 597.0 L 501.5 588.0 L 499.0 587.5 L 494.0 590.5 L 487.5 590.0 L 509.0 578.5 L 510.5 577.0 L 507.5 575.0 L 514.0 572.5 L 515.0 569.5 L 521.0 569.5 L 524.5 566.0 L 519.0 564.5 L 514.0 569.5 L 504.0 574.5 L 501.5 574.0 L 504.5 571.0 L 502.0 569.5 L 497.0 576.5 L 495.5 574.0 L 498.5 572.0 L 497.0 570.5 L 494.0 571.5 L 493.5 570.0 L 499.0 567.5 L 514.0 554.5 L 525.0 550.5 L 524.0 548.5 L 516.0 551.5 L 496.0 551.5 L 485.0 555.5 L 478.0 555.5 L 475.0 551.5 L 473.0 551.5 L 471.0 553.5 L 467.0 552.5 L 452.0 554.5 L 443.0 559.5 L 439.0 559.5 L 410.0 578.5 L 406.0 578.5 L 398.0 584.5 L 388.0 588.5 L 380.5 595.0 L 381.0 596.5 L 378.0 596.5 L 369.0 603.5 L 365.0 609.5 L 332.0 627.5 L 324.5 637.0 L 318.5 654.0 L 319.0 656.5 L 323.0 655.5 L 323.5 657.0 L 321.0 659.5 L 319.0 658.5 L 317.0 661.5 L 307.0 660.5 L 301.0 662.5 L 299.0 660.5 L 293.0 660.5 L 286.0 662.5 L 282.0 660.5 L 271.0 664.5 L 270.0 662.5 L 266.0 664.5 L 262.0 663.5 L 231.0 675.5 L 221.0 676.5 L 209.0 681.5 L 204.5 681.0 L 214.0 673.5 L 235.0 663.5 L 249.0 653.5 L 279.0 637.5 L 293.0 627.5 L 297.0 622.5 L 310.5 615.0 L 310.0 613.5 L 303.0 613.5 L 301.0 616.5 L 288.0 621.5 L 282.0 626.5 L 230.0 650.5 L 198.0 660.5 L 166.0 673.5 L 149.5 675.0 L 159.0 668.5 L 164.0 668.5 L 227.0 638.5 L 253.0 629.5 L 265.0 622.5 L 277.0 618.5 L 282.0 614.5 L 333.0 590.5 L 363.0 573.5 L 392.5 563.0 L 392.0 561.5 L 375.0 558.5 L 352.0 545.5 L 343.5 536.0 L 346.0 534.5 L 354.0 538.5 L 355.5 537.0 L 354.5 534.0 L 346.0 530.5 L 330.5 519.0 L 327.5 515.0 L 330.5 513.0 L 325.5 510.0 L 330.5 508.0 L 328.5 503.0 L 322.0 501.5 L 309.0 494.5 L 303.5 494.0 L 304.5 492.0 L 301.5 490.0 L 300.5 484.0 L 309.5 480.0 L 309.0 477.5 L 306.0 478.5 L 304.5 477.0 L 305.0 474.5 L 316.0 477.5 L 323.0 476.5 L 308.0 472.5 L 306.0 470.5 L 303.5 471.0 L 304.0 473.5 L 273.0 455.5 L 270.0 458.5 L 266.5 456.0 L 269.5 454.0 L 262.5 448.0 L 262.5 444.0 L 245.5 425.0 L 242.5 420.0 L 244.0 418.5 L 260.0 427.5 L 268.0 427.5 L 292.0 434.5 L 302.5 434.0 L 291.0 429.5 L 282.0 428.5 L 252.0 413.5 L 248.0 409.5 L 245.0 410.5 L 231.5 396.0 L 224.5 383.0 L 220.5 367.0 L 222.0 365.5 L 264.0 390.5 L 282.5 395.0 L 249.0 367.5 L 239.5 357.0 L 231.5 343.0 L 229.5 333.0 L 231.0 330.5 L 266.0 354.5 L 289.0 364.5 L 289.5 363.0 L 264.5 336.0 L 260.5 327.0 L 258.5 315.0 L 265.0 313.5 L 280.0 328.5 L 331.0 366.5 L 357.0 380.5 L 383.0 391.5 L 387.0 391.5 L 405.0 403.5 L 419.0 409.5 L 462.0 437.5 L 487.5 463.0 L 518.5 507.0 L 532.0 518.5 L 539.0 517.5 L 541.0 520.5 L 555.0 521.5 L 581.0 520.5 L 589.0 517.5 L 622.0 495.5 L 638.0 487.5 L 659.0 482.5 L 674.0 482.5 L 686.0 484.5 L 702.0 490.5 L 719.0 510.5 L 760.0 518.5 L 782.5 529.0 L 777.0 533.5 L 774.0 533.5 L 773.0 535.5 L 762.0 540.5 L 752.0 543.5 L 709.0 546.5 L 665.0 564.5 L 649.0 574.5 L 637.5 585.0 L 636.5 590.0 L 628.5 598.0 L 630.5 599.0 L 630.0 600.5 L 624.0 601.5 L 626.5 598.0 L 625.0 596.5 L 618.5 603.0 L 616.5 607.0 L 617.5 609.0 L 615.0 609.5 L 607.0 619.5 L 599.0 623.5 L 570.0 646.5 L 543.0 657.5 L 529.0 665.5 L 523.0 666.5 L 511.0 673.5 L 493.0 676.5 L 491.5 676.0 L 493.5 674.0 L 492.0 673.5 L 487.0 678.5 L 468.0 688.5 Z"/><path d="M 356.5 333.0 L 359.0 328.5 L 361.0 329.5 L 363.5 328.0 L 364.0 323.5 L 366.0 325.5 L 378.5 315.0 L 376.0 314.5 L 370.0 319.5 L 367.0 317.5 L 355.5 330.0 L 356.5 333.0 Z"/><path d="M 329.0 329.5 L 328.0 327.5 L 329.0 329.5 Z"/><path d="M 815.0 346.5 L 812.5 345.0 L 813.0 342.5 L 815.0 346.5 Z"/><path d="M 869.0 354.5 L 865.0 347.5 L 869.5 352.0 L 869.0 354.5 Z"/><path d="M 820.0 356.5 L 816.0 349.5 L 819.5 353.0 L 820.0 356.5 Z"/><path d="M 824.0 422.5 L 807.0 406.5 L 790.0 395.5 L 772.0 387.5 L 751.0 382.5 L 744.0 382.5 L 741.0 380.5 L 692.0 380.5 L 651.0 390.5 L 630.0 400.5 L 620.0 400.5 L 617.0 398.5 L 607.5 383.0 L 622.0 370.5 L 639.0 362.5 L 655.0 357.5 L 678.0 354.5 L 681.0 352.5 L 709.0 351.5 L 740.0 354.5 L 771.0 365.5 L 781.0 370.5 L 799.0 383.5 L 813.5 397.0 L 819.5 406.0 L 825.5 418.0 L 824.0 422.5 Z"/><path d="M 872.0 361.5 L 869.5 358.0 L 870.0 355.5 L 871.5 356.0 L 872.0 361.5 Z"/><path d="M 822.0 359.5 L 821.0 357.5 L 822.0 359.5 Z"/><path d="M 718.5 361.0 L 719.0 359.5 L 711.5 360.0 L 718.5 361.0 Z"/><path d="M 824.0 363.5 L 823.0 360.5 L 824.5 361.0 L 824.0 363.5 Z"/><path d="M 877.0 372.5 L 872.5 366.0 L 873.0 362.5 L 874.5 363.0 L 877.0 372.5 Z"/><path d="M 826.0 366.5 L 826.0 364.5 L 826.0 366.5 Z"/><path d="M 828.0 369.5 L 828.0 367.5 L 828.0 369.5 Z"/><path d="M 830.0 371.5 L 829.0 369.5 L 830.0 371.5 Z"/><path d="M 833.0 375.5 L 830.5 374.0 L 831.0 372.5 L 833.0 375.5 Z"/><path d="M 879.0 376.5 L 877.5 376.0 L 878.0 373.5 L 879.5 374.0 L 879.0 376.5 Z"/><path d="M 835.0 378.5 L 834.0 376.5 L 835.0 378.5 Z"/><path d="M 641.0 850.5 L 637.0 850.5 L 636.0 848.5 L 632.0 850.5 L 438.0 850.5 L 437.0 848.5 L 419.0 844.5 L 408.0 839.5 L 403.0 839.5 L 402.0 837.5 L 400.0 838.5 L 398.5 837.0 L 401.0 834.5 L 395.0 837.5 L 393.0 835.5 L 388.0 835.5 L 388.0 833.5 L 384.0 834.5 L 376.0 830.5 L 373.0 831.5 L 366.0 829.5 L 366.0 827.5 L 373.5 827.0 L 368.0 824.5 L 368.0 822.5 L 377.0 826.5 L 379.5 826.0 L 330.0 800.5 L 310.0 783.5 L 299.0 779.5 L 280.0 762.5 L 278.5 764.0 L 280.5 766.0 L 278.0 766.5 L 264.0 757.5 L 241.5 733.0 L 242.0 730.5 L 244.0 730.5 L 261.0 748.5 L 265.0 748.5 L 271.5 758.0 L 276.0 762.5 L 277.5 762.0 L 273.5 758.0 L 274.5 755.0 L 256.5 734.0 L 251.0 728.5 L 245.5 726.0 L 246.0 723.5 L 242.0 728.5 L 238.5 726.0 L 244.5 722.0 L 239.5 718.0 L 226.5 697.0 L 231.0 691.5 L 259.0 691.5 L 303.0 733.5 L 317.0 743.5 L 327.0 754.5 L 329.0 754.5 L 341.0 765.5 L 342.5 764.0 L 328.0 751.5 L 307.5 729.0 L 310.5 726.0 L 303.5 719.0 L 306.0 717.5 L 316.5 726.0 L 315.0 729.5 L 317.0 727.5 L 340.0 747.5 L 343.0 744.5 L 352.0 752.5 L 349.5 747.0 L 341.0 741.5 L 330.0 727.5 L 328.0 729.5 L 323.0 727.5 L 317.5 722.0 L 317.5 719.0 L 315.0 716.5 L 313.5 718.0 L 311.5 713.0 L 319.0 712.5 L 328.0 719.5 L 324.0 711.5 L 333.0 715.5 L 338.0 715.5 L 334.5 712.0 L 337.0 710.5 L 344.0 715.5 L 343.0 709.5 L 349.0 709.5 L 354.0 705.5 L 357.0 705.5 L 363.0 711.5 L 365.0 712.5 L 366.0 709.5 L 367.0 713.5 L 369.0 712.5 L 373.0 714.5 L 384.0 723.5 L 401.0 730.5 L 405.0 735.5 L 407.5 736.0 L 406.0 737.5 L 400.0 732.5 L 395.0 732.5 L 389.0 727.5 L 383.0 726.5 L 381.5 728.0 L 394.0 736.5 L 409.0 742.5 L 422.0 751.5 L 425.0 751.5 L 437.0 759.5 L 451.0 765.5 L 456.0 767.5 L 464.0 767.5 L 483.0 773.5 L 520.0 773.5 L 523.0 775.5 L 525.0 773.5 L 527.0 777.5 L 540.5 777.0 L 533.0 774.5 L 532.0 772.5 L 546.0 775.5 L 551.0 773.5 L 555.0 775.5 L 570.0 774.5 L 574.5 773.0 L 566.0 772.5 L 565.5 771.0 L 571.0 770.5 L 574.0 767.5 L 579.0 768.5 L 600.0 764.5 L 603.0 765.5 L 616.0 760.5 L 621.0 760.5 L 624.0 762.5 L 630.0 759.5 L 646.5 756.0 L 645.0 758.5 L 605.5 770.0 L 611.0 770.5 L 626.0 765.5 L 635.0 764.5 L 637.0 762.5 L 642.0 762.5 L 647.0 759.5 L 651.0 760.5 L 661.0 757.5 L 665.5 754.0 L 665.0 752.5 L 652.0 758.5 L 649.5 757.0 L 656.0 751.5 L 660.0 751.5 L 677.0 743.5 L 679.5 744.0 L 673.5 750.0 L 675.0 752.5 L 679.0 751.5 L 682.0 747.5 L 709.0 733.5 L 723.0 721.5 L 737.5 713.0 L 734.0 718.5 L 708.0 738.5 L 695.0 745.5 L 691.0 750.5 L 701.0 746.5 L 702.0 744.5 L 726.0 731.5 L 742.0 718.5 L 744.5 720.0 L 738.0 726.5 L 750.0 720.5 L 770.5 702.0 L 773.5 697.0 L 797.5 673.0 L 797.5 671.0 L 817.5 648.0 L 838.5 615.0 L 841.5 604.0 L 848.5 591.0 L 851.5 579.0 L 851.5 565.0 L 856.5 546.0 L 858.5 520.0 L 857.5 511.0 L 859.0 509.5 L 862.5 515.0 L 861.5 539.0 L 859.5 543.0 L 858.5 563.0 L 856.5 565.0 L 856.5 576.0 L 853.5 580.0 L 850.5 599.0 L 838.5 623.0 L 830.5 634.0 L 832.5 636.0 L 822.5 649.0 L 810.5 670.0 L 798.0 683.5 L 789.0 689.5 L 777.0 702.5 L 765.0 710.5 L 755.0 720.5 L 746.0 725.5 L 742.0 730.5 L 735.0 733.5 L 729.0 740.5 L 725.0 740.5 L 719.0 744.5 L 706.5 755.0 L 724.0 744.5 L 726.5 745.0 L 719.0 749.5 L 719.0 751.5 L 729.0 747.5 L 745.0 736.5 L 747.0 737.5 L 758.0 730.5 L 795.5 699.0 L 826.5 663.0 L 838.5 646.0 L 853.5 618.0 L 854.0 611.5 L 851.5 617.0 L 850.0 618.5 L 848.5 617.0 L 851.5 610.0 L 856.5 606.0 L 854.5 602.0 L 857.5 601.0 L 859.5 596.0 L 858.5 594.0 L 862.5 586.0 L 862.5 580.0 L 865.5 573.0 L 864.5 567.0 L 867.5 568.0 L 867.5 562.0 L 865.0 564.5 L 864.5 559.0 L 868.0 560.5 L 870.5 556.0 L 870.5 553.0 L 867.5 551.0 L 870.5 549.0 L 871.5 540.0 L 869.5 537.0 L 871.5 536.0 L 870.5 533.0 L 872.5 531.0 L 872.5 511.0 L 875.5 501.0 L 876.5 486.0 L 874.5 448.0 L 876.5 441.0 L 872.5 422.0 L 869.5 416.0 L 870.0 412.5 L 880.5 430.0 L 900.5 494.0 L 905.5 535.0 L 905.5 540.0 L 902.5 545.0 L 902.5 564.0 L 900.5 573.0 L 903.5 572.0 L 902.5 569.0 L 906.5 558.0 L 908.5 540.0 L 906.5 494.0 L 895.5 432.0 L 893.5 430.0 L 892.5 421.0 L 888.5 412.0 L 888.5 404.0 L 885.5 400.0 L 880.0 377.5 L 895.5 415.0 L 908.5 459.0 L 911.5 484.0 L 915.5 496.0 L 916.5 519.0 L 916.5 566.0 L 910.5 614.0 L 902.5 646.0 L 898.5 653.0 L 897.5 660.0 L 889.5 680.0 L 866.5 720.0 L 858.5 729.0 L 848.5 745.0 L 810.0 785.5 L 797.0 795.5 L 773.0 810.5 L 761.0 814.5 L 755.0 814.5 L 734.0 826.5 L 724.0 829.5 L 711.0 836.5 L 709.0 834.5 L 701.0 838.5 L 686.0 839.5 L 677.0 843.5 L 670.5 842.0 L 680.0 837.5 L 682.0 839.5 L 693.5 834.0 L 691.0 832.5 L 685.0 835.5 L 673.0 837.5 L 664.0 842.5 L 649.0 845.5 L 641.0 850.5 Z"/><path d="M 836.0 381.5 L 836.0 379.5 L 836.0 381.5 Z"/><path d="M 838.0 384.5 L 837.0 382.5 L 838.0 384.5 Z"/><path d="M 840.0 389.5 L 839.0 385.5 L 840.0 389.5 Z"/><path d="M 784.0 442.5 L 769.0 432.5 L 750.0 424.5 L 729.0 421.5 L 726.0 419.5 L 700.0 419.5 L 692.0 421.5 L 680.0 425.5 L 661.0 436.5 L 653.5 433.0 L 647.5 422.0 L 654.0 414.5 L 674.0 401.5 L 692.0 396.5 L 723.0 396.5 L 738.0 399.5 L 755.0 406.5 L 771.0 417.5 L 785.5 435.0 L 786.5 441.0 L 784.0 442.5 Z"/><path d="M 541.0 510.5 L 533.0 509.5 L 516.5 496.0 L 491.5 459.0 L 464.5 429.0 L 454.5 421.0 L 454.5 415.0 L 443.0 400.5 L 446.0 399.5 L 457.0 406.5 L 496.0 442.5 L 497.5 441.0 L 495.5 437.0 L 485.5 427.0 L 482.5 416.0 L 471.5 404.0 L 471.5 402.0 L 474.0 401.5 L 479.0 404.5 L 501.0 421.5 L 513.5 436.0 L 547.5 468.0 L 545.5 471.0 L 548.0 474.5 L 550.0 472.5 L 552.5 477.0 L 549.5 476.0 L 549.5 485.0 L 546.5 488.0 L 546.5 506.0 L 541.0 510.5 Z"/><path d="M 435.5 548.0 L 481.0 537.5 L 481.5 536.0 L 476.0 530.5 L 462.0 528.5 L 459.5 525.0 L 465.0 525.5 L 465.5 524.0 L 461.0 522.5 L 455.5 516.0 L 459.0 510.5 L 461.0 510.5 L 460.5 513.0 L 463.0 514.5 L 469.0 514.5 L 473.5 510.0 L 463.0 502.5 L 456.0 501.5 L 444.5 494.0 L 446.0 492.5 L 454.0 495.5 L 457.5 495.0 L 449.0 489.5 L 450.0 487.5 L 458.0 492.5 L 461.5 492.0 L 447.5 484.0 L 451.0 482.5 L 458.0 486.5 L 459.5 485.0 L 452.0 480.5 L 433.5 463.0 L 432.5 461.0 L 434.0 459.5 L 439.0 463.5 L 441.5 462.0 L 436.5 457.0 L 436.0 453.5 L 433.5 455.0 L 439.5 448.0 L 432.0 440.5 L 394.0 416.5 L 368.0 403.5 L 365.0 404.5 L 361.0 400.5 L 359.5 403.0 L 363.0 406.5 L 378.0 416.5 L 388.5 427.0 L 393.5 437.0 L 389.0 435.5 L 387.5 437.0 L 400.5 447.0 L 361.0 424.5 L 354.0 422.5 L 351.0 419.5 L 342.0 417.5 L 342.0 419.5 L 350.0 424.5 L 353.0 424.5 L 359.0 430.5 L 377.0 439.5 L 377.5 442.0 L 374.0 441.5 L 373.5 443.0 L 381.5 448.0 L 380.0 449.5 L 375.0 446.5 L 373.0 447.5 L 359.0 442.5 L 361.0 448.5 L 364.0 450.5 L 369.0 450.5 L 381.0 458.5 L 383.5 463.0 L 376.0 466.5 L 367.0 461.5 L 358.0 459.5 L 357.5 461.0 L 362.0 461.5 L 375.0 471.5 L 395.0 480.5 L 397.0 479.5 L 407.0 486.5 L 419.0 488.5 L 424.5 492.0 L 413.0 491.5 L 410.0 489.5 L 398.0 488.5 L 375.0 481.5 L 371.5 482.0 L 386.0 487.5 L 390.5 492.0 L 387.0 491.5 L 386.5 493.0 L 393.0 499.5 L 396.0 497.5 L 404.0 502.5 L 407.0 502.5 L 418.0 510.5 L 418.5 512.0 L 415.5 513.0 L 418.0 517.5 L 409.5 515.0 L 412.0 520.5 L 419.0 522.5 L 421.0 521.5 L 433.5 526.0 L 432.5 528.0 L 436.5 530.0 L 433.0 533.5 L 427.0 533.5 L 420.5 538.0 L 429.5 544.0 L 426.0 546.5 L 435.5 548.0 Z"/><path d="M 625.0 404.5 L 623.5 404.0 L 625.0 404.5 Z"/><path d="M 203.0 632.5 L 198.5 631.0 L 198.5 626.0 L 195.5 621.0 L 189.5 595.0 L 187.5 593.0 L 187.5 587.0 L 184.5 581.0 L 179.5 533.0 L 178.5 503.0 L 180.5 474.0 L 182.5 471.0 L 184.5 451.0 L 188.5 443.0 L 187.5 440.0 L 190.0 435.5 L 191.5 439.0 L 193.5 439.0 L 192.5 427.0 L 194.5 421.0 L 201.0 416.5 L 207.0 408.5 L 212.5 415.0 L 213.5 420.0 L 213.5 445.0 L 215.5 444.0 L 215.5 438.0 L 218.5 440.0 L 221.0 430.5 L 222.5 438.0 L 225.0 435.5 L 225.5 438.0 L 229.5 440.0 L 232.5 447.0 L 233.5 455.0 L 235.5 457.0 L 234.5 462.0 L 236.5 472.0 L 238.5 475.0 L 236.5 482.0 L 241.5 490.0 L 240.5 495.0 L 243.5 502.0 L 243.5 509.0 L 245.5 511.0 L 244.5 518.0 L 246.5 520.0 L 244.5 522.0 L 248.5 533.0 L 247.5 535.0 L 249.5 538.0 L 250.5 551.0 L 252.5 552.0 L 252.5 558.0 L 260.5 582.0 L 263.5 584.0 L 255.5 560.0 L 254.5 551.0 L 252.5 549.0 L 253.5 545.0 L 249.5 526.0 L 249.5 523.0 L 252.0 524.5 L 252.5 523.0 L 251.0 519.5 L 249.0 522.5 L 247.5 522.0 L 249.5 513.0 L 244.5 500.0 L 244.5 490.0 L 239.5 472.0 L 238.5 460.0 L 240.0 456.5 L 243.5 459.0 L 244.5 466.0 L 250.5 479.0 L 249.5 480.0 L 254.5 489.0 L 254.5 496.0 L 264.5 523.0 L 264.5 533.0 L 267.5 539.0 L 265.5 545.0 L 268.5 547.0 L 267.5 551.0 L 270.0 549.5 L 274.5 557.0 L 277.5 576.0 L 281.5 583.0 L 283.5 593.0 L 280.5 593.0 L 280.5 598.0 L 278.0 600.5 L 269.0 602.5 L 257.0 611.5 L 255.0 610.5 L 227.0 623.5 L 221.5 622.0 L 209.0 601.5 L 208.5 605.0 L 210.5 607.0 L 214.5 622.0 L 210.5 623.0 L 212.5 625.0 L 212.0 628.5 L 209.0 628.5 L 203.0 632.5 Z"/><path d="M 243.0 414.5 L 241.5 414.0 L 243.0 414.5 Z"/><path d="M 216.0 427.5 L 216.0 424.5 L 216.0 427.5 Z"/><path d="M 255.5 429.0 L 253.5 428.0 L 255.5 429.0 Z"/><path d="M 257.5 431.0 L 257.0 429.5 L 257.5 431.0 Z"/><path d="M 197.5 440.0 L 200.5 435.0 L 199.0 431.5 L 196.5 437.0 L 197.5 440.0 Z"/><path d="M 195.5 435.0 L 195.0 433.5 L 195.5 435.0 Z"/><path d="M 755.0 465.5 L 744.0 463.5 L 734.0 458.5 L 725.0 457.5 L 702.0 457.5 L 695.0 460.5 L 692.0 459.5 L 685.0 461.5 L 677.5 459.0 L 675.5 450.0 L 683.0 440.5 L 698.0 437.5 L 700.0 435.5 L 718.0 435.5 L 733.0 439.5 L 746.0 447.5 L 754.5 456.0 L 755.0 465.5 Z"/><path d="M 402.0 442.5 L 398.0 441.5 L 394.5 438.0 L 402.0 440.5 L 402.0 442.5 Z"/><path d="M 193.5 446.0 L 193.0 440.5 L 191.5 445.0 L 193.5 446.0 Z"/><path d="M 226.5 442.0 L 226.0 440.5 L 226.5 442.0 Z"/><path d="M 354.5 446.0 L 352.0 441.5 L 345.5 442.0 L 350.0 445.5 L 354.5 446.0 Z"/><path d="M 357.5 442.0 L 355.5 442.0 L 357.5 442.0 Z"/><path d="M 213.5 468.0 L 214.5 448.0 L 211.0 447.5 L 209.5 457.0 L 213.5 468.0 Z"/><path d="M 435.0 450.5 L 434.0 447.5 L 435.0 450.5 Z"/><path d="M 239.0 451.5 L 239.0 449.5 L 239.0 451.5 Z"/><path d="M 446.5 458.0 L 440.5 453.0 L 440.0 450.5 L 438.5 451.0 L 443.0 458.5 L 446.5 458.0 Z"/><path d="M 266.0 455.5 L 265.0 453.5 L 266.0 455.5 Z"/><path d="M 241.5 462.0 L 239.5 461.0 L 241.5 462.0 Z"/><path d="M 364.5 469.0 L 360.5 467.0 L 364.5 469.0 Z"/><path d="M 368.5 480.0 L 366.5 479.0 L 368.5 480.0 Z"/><path d="M 310.5 484.0 L 311.0 481.5 L 308.5 483.0 L 310.5 484.0 Z"/><path d="M 327.5 485.0 L 331.5 484.0 L 325.0 483.5 L 323.0 481.5 L 314.5 482.0 L 327.5 485.0 Z"/><path d="M 324.5 487.0 L 317.0 486.5 L 315.0 484.5 L 311.5 487.0 L 324.5 487.0 Z"/><path d="M 308.5 491.0 L 309.0 489.5 L 303.5 487.0 L 308.5 491.0 Z"/><path d="M 378.5 491.0 L 376.5 490.0 L 378.5 491.0 Z"/><path d="M 384.5 491.0 L 384.0 489.5 L 384.5 491.0 Z"/><path d="M 681.5 510.0 L 684.5 508.0 L 685.5 503.0 L 678.0 499.5 L 673.0 501.5 L 668.5 507.0 L 670.0 510.5 L 681.5 510.0 Z"/><path d="M 332.5 505.0 L 330.5 505.0 L 332.5 505.0 Z"/><path d="M 348.5 510.0 L 333.5 506.0 L 342.0 510.5 L 348.5 510.0 Z"/><path d="M 470.0 512.5 L 464.0 512.5 L 462.5 508.0 L 470.0 510.5 L 470.0 512.5 Z"/><path d="M 334.5 511.0 L 331.5 510.0 L 332.0 511.5 L 334.5 511.0 Z"/><path d="M 339.5 513.0 L 335.5 513.0 L 339.5 513.0 Z"/><path d="M 404.5 514.0 L 404.0 512.5 L 401.5 513.0 L 404.5 514.0 Z"/><path d="M 875.5 515.0 L 875.0 512.5 L 875.5 515.0 Z"/><path d="M 401.5 519.0 L 400.0 517.5 L 398.5 519.0 L 401.5 519.0 Z"/><path d="M 187.5 527.0 L 187.5 521.0 L 186.0 520.5 L 184.5 526.0 L 187.5 527.0 Z"/><path d="M 736.5 535.0 L 761.5 531.0 L 740.0 525.5 L 733.0 525.5 L 730.0 523.5 L 716.0 522.5 L 713.5 524.0 L 710.5 532.0 L 712.0 534.5 L 736.5 535.0 Z"/><path d="M 190.5 552.0 L 192.5 546.0 L 190.0 535.5 L 188.5 538.0 L 190.5 552.0 Z"/><path d="M 359.5 544.0 L 355.5 543.0 L 356.0 544.5 L 359.5 544.0 Z"/><path d="M 270.5 559.0 L 269.0 554.5 L 268.5 557.0 L 270.5 559.0 Z"/><path d="M 180.0 565.5 L 179.0 560.5 L 181.5 562.0 L 180.0 565.5 Z"/><path d="M 506.5 569.0 L 506.0 567.5 L 504.5 569.0 L 506.5 569.0 Z"/><path d="M 280.0 574.5 L 280.0 572.5 L 280.0 574.5 Z"/><path d="M 203.5 629.0 L 205.0 625.5 L 208.5 627.0 L 208.5 624.0 L 205.5 621.0 L 198.5 604.0 L 200.0 602.5 L 202.0 606.5 L 203.5 605.0 L 201.5 601.0 L 202.5 599.0 L 201.0 597.5 L 200.0 599.5 L 198.5 599.0 L 199.5 595.0 L 197.5 586.0 L 194.5 583.0 L 195.5 579.0 L 192.0 574.5 L 192.5 588.0 L 195.5 595.0 L 197.5 610.0 L 203.5 623.0 L 203.5 629.0 Z"/><path d="M 858.0 586.5 L 856.5 586.0 L 857.5 581.0 L 862.0 574.5 L 863.5 576.0 L 858.0 586.5 Z"/><path d="M 900.5 581.0 L 900.0 579.5 L 900.5 581.0 Z"/><path d="M 487.0 583.5 L 486.0 581.5 L 487.0 583.5 Z"/><path d="M 856.0 588.5 L 856.0 586.5 L 856.0 588.5 Z"/><path d="M 331.0 705.5 L 325.0 705.5 L 321.5 702.0 L 326.0 700.5 L 327.0 697.5 L 321.0 700.5 L 316.0 699.5 L 312.0 702.5 L 302.0 702.5 L 283.5 697.0 L 288.5 695.0 L 287.5 692.0 L 292.0 686.5 L 305.0 682.5 L 321.0 673.5 L 338.0 668.5 L 357.5 659.0 L 357.0 657.5 L 349.0 657.5 L 344.0 653.5 L 342.0 655.5 L 338.0 655.5 L 338.0 653.5 L 344.5 650.0 L 334.5 647.0 L 337.5 642.0 L 335.5 639.0 L 342.0 630.5 L 354.0 622.5 L 366.0 609.5 L 367.5 611.0 L 358.5 622.0 L 358.0 626.5 L 366.0 622.5 L 374.0 621.5 L 402.0 606.5 L 415.0 601.5 L 417.5 603.0 L 407.0 611.5 L 400.5 618.0 L 401.0 619.5 L 410.0 614.5 L 409.0 611.5 L 414.0 611.5 L 414.5 613.0 L 408.5 618.0 L 408.0 620.5 L 415.0 616.5 L 416.0 623.5 L 418.0 622.5 L 420.0 624.5 L 424.0 624.5 L 426.0 621.5 L 432.0 623.5 L 453.0 613.5 L 457.0 609.5 L 459.5 610.0 L 457.5 613.0 L 462.5 616.0 L 460.0 618.5 L 454.0 618.5 L 453.5 622.0 L 461.0 619.5 L 465.0 619.5 L 465.5 621.0 L 464.0 622.5 L 460.0 621.5 L 451.5 629.0 L 454.0 629.5 L 456.0 627.5 L 457.5 629.0 L 456.0 631.5 L 439.0 640.5 L 432.5 646.0 L 437.0 648.5 L 434.0 648.5 L 429.0 652.5 L 428.5 650.0 L 431.5 648.0 L 428.0 647.5 L 425.5 650.0 L 426.5 653.0 L 423.0 655.5 L 421.0 655.5 L 419.0 652.5 L 409.0 657.5 L 396.0 657.5 L 390.0 660.5 L 387.0 657.5 L 385.0 658.5 L 384.5 655.0 L 382.0 653.5 L 379.0 655.5 L 372.0 654.5 L 374.0 661.5 L 380.0 660.5 L 383.5 665.0 L 369.5 686.0 L 352.0 700.5 L 335.0 704.5 L 331.0 702.5 L 331.0 705.5 Z"/><path d="M 827.0 649.5 L 825.5 649.0 L 828.5 643.0 L 833.5 637.0 L 832.5 634.0 L 834.5 634.0 L 847.5 608.0 L 853.0 601.5 L 853.5 604.0 L 835.5 638.0 L 827.0 649.5 Z"/><path d="M 592.0 640.5 L 593.0 637.5 L 595.0 637.5 L 609.5 624.0 L 608.5 622.0 L 612.5 619.0 L 620.5 605.0 L 622.0 603.5 L 626.0 604.5 L 627.5 606.0 L 614.5 623.0 L 597.0 638.5 L 592.0 640.5 Z"/><path d="M 483.5 614.0 L 484.0 612.5 L 480.5 614.0 L 483.5 614.0 Z"/><path d="M 402.5 614.0 L 400.5 614.0 L 402.5 614.0 Z"/><path d="M 211.5 620.0 L 208.0 614.5 L 211.5 620.0 Z"/><path d="M 395.5 617.0 L 397.0 614.5 L 392.5 617.0 L 395.5 617.0 Z"/><path d="M 399.5 621.0 L 397.5 620.0 L 399.5 621.0 Z"/><path d="M 450.5 621.0 L 451.0 619.5 L 447.5 621.0 L 450.5 621.0 Z"/><path d="M 413.5 622.0 L 411.5 621.0 L 413.5 622.0 Z"/><path d="M 383.5 623.0 L 383.0 621.5 L 380.5 622.0 L 381.0 623.5 L 383.5 623.0 Z"/><path d="M 389.5 622.0 L 387.5 622.0 L 389.5 622.0 Z"/><path d="M 606.0 624.5 L 604.5 624.0 L 606.0 624.5 Z"/><path d="M 408.5 626.0 L 409.0 624.5 L 407.5 625.0 L 408.5 626.0 Z"/><path d="M 451.5 626.0 L 452.0 624.5 L 450.5 625.0 L 451.5 626.0 Z"/><path d="M 494.5 627.0 L 496.5 626.0 L 496.0 624.5 L 493.5 626.0 L 494.5 627.0 Z"/><path d="M 368.5 627.0 L 366.5 627.0 L 368.5 627.0 Z"/><path d="M 420.5 627.0 L 418.5 627.0 L 420.5 627.0 Z"/><path d="M 475.5 629.0 L 476.5 627.0 L 474.0 626.5 L 473.5 628.0 L 475.5 629.0 Z"/><path d="M 599.0 630.5 L 597.5 630.0 L 599.0 626.5 L 599.0 630.5 Z"/><path d="M 454.5 654.0 L 460.0 653.5 L 484.0 642.5 L 496.0 639.5 L 496.0 637.5 L 491.0 637.5 L 490.5 636.0 L 496.0 635.5 L 501.5 630.0 L 490.0 632.5 L 461.0 646.5 L 453.5 652.0 L 454.5 654.0 Z"/><path d="M 458.0 634.5 L 455.5 634.0 L 458.0 632.5 L 458.0 634.5 Z"/><path d="M 488.0 639.5 L 487.0 637.5 L 489.5 638.0 L 488.0 639.5 Z"/><path d="M 504.0 687.5 L 501.5 687.0 L 552.0 664.5 L 581.0 647.5 L 589.0 640.5 L 591.5 641.0 L 585.0 648.5 L 557.0 665.5 L 530.0 678.5 L 504.0 687.5 Z"/><path d="M 457.5 647.0 L 455.5 646.0 L 457.5 647.0 Z"/><path d="M 441.5 652.0 L 439.5 651.0 L 441.5 652.0 Z"/><path d="M 423.5 653.0 L 423.0 651.5 L 423.5 653.0 Z"/><path d="M 354.5 653.0 L 352.5 653.0 L 354.5 653.0 Z"/><path d="M 433.0 654.5 L 432.0 652.5 L 433.0 654.5 Z"/><path d="M 823.0 655.5 L 823.0 653.5 L 823.0 655.5 Z"/><path d="M 288.5 656.0 L 286.5 656.0 L 288.5 656.0 Z"/><path d="M 359.5 657.0 L 360.0 655.5 L 358.5 656.0 L 359.5 657.0 Z"/><path d="M 364.5 657.0 L 362.5 656.0 L 364.5 657.0 Z"/><path d="M 284.5 658.0 L 282.5 657.0 L 284.5 658.0 Z"/><path d="M 413.0 663.5 L 400.5 663.0 L 403.0 660.5 L 411.0 660.5 L 417.0 656.5 L 413.0 663.5 Z"/><path d="M 819.0 665.5 L 817.5 663.0 L 823.0 658.5 L 823.5 661.0 L 819.0 665.5 Z"/><path d="M 232.5 673.0 L 232.0 671.5 L 232.5 673.0 Z"/><path d="M 821.5 735.0 L 831.5 724.0 L 846.5 702.0 L 856.5 685.0 L 859.0 674.5 L 848.5 694.0 L 821.5 735.0 Z"/><path d="M 439.0 686.5 L 434.5 686.0 L 439.0 684.5 L 439.0 686.5 Z"/><path d="M 800.0 689.5 L 799.0 686.5 L 800.0 689.5 Z"/><path d="M 427.0 691.5 L 425.5 690.0 L 429.0 688.5 L 429.5 690.0 L 427.0 691.5 Z"/><path d="M 420.0 694.5 L 419.0 692.5 L 420.0 694.5 Z"/><path d="M 423.0 694.5 L 424.0 692.5 L 423.0 694.5 Z"/><path d="M 452.0 694.5 L 449.5 694.0 L 452.0 692.5 L 452.0 694.5 Z"/><path d="M 787.0 701.5 L 784.0 701.5 L 783.5 699.0 L 786.0 699.5 L 794.0 692.5 L 794.5 694.0 L 787.0 701.5 Z"/><path d="M 414.0 697.5 L 413.0 695.5 L 417.5 695.0 L 414.0 697.5 Z"/><path d="M 325.0 709.5 L 326.0 707.5 L 325.0 709.5 Z"/><path d="M 313.0 710.5 L 311.5 710.0 L 313.0 710.5 Z"/><path d="M 373.5 718.0 L 371.5 718.0 L 373.5 718.0 Z"/><path d="M 350.5 737.0 L 341.0 727.5 L 331.0 720.5 L 328.5 721.0 L 350.5 737.0 Z"/><path d="M 307.0 727.5 L 304.5 726.0 L 305.0 724.5 L 307.5 726.0 L 307.0 727.5 Z"/><path d="M 331.0 731.5 L 329.5 731.0 L 331.0 731.5 Z"/><path d="M 417.0 744.5 L 416.0 741.5 L 417.0 744.5 Z"/><path d="M 683.0 743.5 L 680.5 743.0 L 683.0 741.5 L 683.0 743.5 Z"/><path d="M 731.0 744.5 L 729.5 744.0 L 731.0 744.5 Z"/><path d="M 426.0 746.5 L 426.0 744.5 L 426.0 746.5 Z"/><path d="M 709.5 748.0 L 713.5 745.0 L 709.0 746.5 L 709.5 748.0 Z"/><path d="M 734.5 747.0 L 736.5 746.0 L 736.0 744.5 L 734.5 747.0 Z"/><path d="M 354.5 748.0 L 350.5 746.0 L 354.5 748.0 Z"/><path d="M 446.0 757.5 L 431.0 753.5 L 425.5 749.0 L 445.0 754.5 L 446.0 757.5 Z"/><path d="M 676.0 750.5 L 677.0 748.5 L 676.0 750.5 Z"/><path d="M 701.5 754.0 L 707.5 749.0 L 698.5 754.0 L 701.5 754.0 Z"/><path d="M 672.5 752.0 L 672.0 750.5 L 670.5 752.0 L 672.5 752.0 Z"/><path d="M 367.5 759.0 L 363.0 752.5 L 364.5 758.0 L 367.5 759.0 Z"/><path d="M 677.5 771.0 L 680.0 768.5 L 686.0 767.5 L 702.0 759.5 L 705.5 756.0 L 689.0 762.5 L 674.5 771.0 L 677.5 771.0 Z"/><path d="M 814.5 766.0 L 824.5 757.0 L 823.0 755.5 L 812.5 765.0 L 814.5 766.0 Z"/><path d="M 277.5 757.0 L 275.5 757.0 L 277.5 757.0 Z"/><path d="M 626.0 759.5 L 624.5 759.0 L 628.0 756.5 L 626.0 759.5 Z"/><path d="M 686.5 760.0 L 688.5 759.0 L 688.0 757.5 L 684.5 760.0 L 686.5 760.0 Z"/><path d="M 370.5 763.0 L 368.5 762.0 L 370.5 763.0 Z"/><path d="M 375.5 762.0 L 372.5 762.0 L 375.5 762.0 Z"/><path d="M 617.5 764.0 L 618.0 762.5 L 617.5 764.0 Z"/><path d="M 478.0 765.5 L 475.5 765.0 L 478.0 765.5 Z"/><path d="M 482.0 765.5 L 480.5 765.0 L 482.0 765.5 Z"/><path d="M 494.0 769.5 L 485.5 766.0 L 490.0 765.5 L 494.5 768.0 L 494.0 769.5 Z"/><path d="M 800.5 780.0 L 807.5 775.0 L 811.0 767.5 L 807.0 769.5 L 799.5 778.0 L 800.5 780.0 Z"/><path d="M 506.0 771.5 L 497.0 771.5 L 496.5 769.0 L 504.0 768.5 L 506.5 770.0 L 506.0 771.5 Z"/><path d="M 561.0 773.5 L 558.5 772.0 L 560.0 771.5 L 561.0 773.5 Z"/><path d="M 503.5 777.0 L 498.5 776.0 L 503.5 777.0 Z"/><path d="M 281.0 778.5 L 279.5 778.0 L 281.0 778.5 Z"/><path d="M 508.5 778.0 L 506.5 778.0 L 508.5 778.0 Z"/><path d="M 795.5 785.0 L 798.5 782.0 L 797.0 779.5 L 794.5 784.0 L 795.5 785.0 Z"/><path d="M 787.5 786.0 L 787.0 784.5 L 784.5 786.0 L 787.5 786.0 Z"/><path d="M 295.0 792.5 L 290.5 790.0 L 291.0 787.5 L 295.5 791.0 L 295.0 792.5 Z"/><path d="M 766.5 798.0 L 782.5 788.0 L 778.0 788.5 L 766.0 796.5 L 766.5 798.0 Z"/><path d="M 315.0 791.5 L 312.5 790.0 L 313.0 788.5 L 315.0 791.5 Z"/><path d="M 326.0 800.5 L 316.5 793.0 L 324.0 796.5 L 326.0 800.5 Z"/><path d="M 301.0 795.5 L 301.0 793.5 L 301.0 795.5 Z"/><path d="M 461.5 815.0 L 465.0 812.5 L 469.0 814.5 L 472.5 813.0 L 461.0 808.5 L 458.0 809.5 L 445.0 806.5 L 440.0 803.5 L 436.0 803.5 L 428.0 797.5 L 425.5 798.0 L 425.5 801.0 L 431.0 804.5 L 433.0 803.5 L 436.0 806.5 L 452.0 812.5 L 461.0 811.5 L 461.0 813.5 L 456.5 814.0 L 461.5 815.0 Z"/><path d="M 308.0 803.5 L 307.0 801.5 L 308.0 803.5 Z"/><path d="M 332.0 803.5 L 332.0 801.5 L 332.0 803.5 Z"/><path d="M 334.0 804.5 L 332.5 804.0 L 334.0 804.5 Z"/><path d="M 319.0 811.5 L 315.5 809.0 L 317.0 808.5 L 319.0 811.5 Z"/><path d="M 760.5 812.0 L 763.5 810.0 L 760.0 810.5 L 760.5 812.0 Z"/><path d="M 502.5 811.0 L 500.5 811.0 L 502.5 811.0 Z"/><path d="M 340.0 813.5 L 339.0 811.5 L 340.0 813.5 Z"/><path d="M 342.0 814.5 L 340.5 814.0 L 342.0 814.5 Z"/><path d="M 345.0 816.5 L 342.5 815.0 L 345.0 814.5 L 345.0 816.5 Z"/><path d="M 359.0 823.5 L 353.0 818.5 L 350.0 818.5 L 347.5 815.0 L 359.0 820.5 L 360.5 822.0 L 359.0 823.5 Z"/><path d="M 353.0 822.5 L 350.5 822.0 L 353.0 822.5 Z"/><path d="M 384.5 831.0 L 381.5 829.0 L 382.0 826.5 L 378.5 828.0 L 384.5 831.0 Z"/><path d="M 698.5 832.0 L 701.5 830.0 L 695.5 832.0 L 698.5 832.0 Z"/><path d="M 391.5 832.0 L 389.5 832.0 L 391.5 832.0 Z"/><path d="M 393.0 840.5 L 384.0 839.5 L 373.5 833.0 L 384.0 835.5 L 393.0 840.5 Z"/><path d="M 404.5 837.0 L 404.0 835.5 L 404.5 837.0 Z"/><path d="M 396.0 842.5 L 393.5 841.0 L 396.0 840.5 L 396.0 842.5 Z"/><path d="M 419.0 848.5 L 405.0 845.5 L 397.5 841.0 L 405.0 841.5 L 417.0 847.5 L 418.0 846.5 L 419.0 848.5 Z"/><path d="M 457.5 842.0 L 454.5 841.0 L 457.5 842.0 Z"/><path d="M 481.5 847.0 L 473.0 842.5 L 462.0 840.5 L 458.5 842.0 L 464.0 845.5 L 481.5 847.0 Z"/><path d="M 440.5 843.0 L 436.5 843.0 L 440.5 843.0 Z"/><path d="M 445.5 848.0 L 446.5 846.0 L 444.0 844.5 L 445.5 848.0 Z"/><path d="M 243.0 850.5 L 229.0 850.5 L 228.5 849.0 L 239.0 847.5 L 243.0 848.5 L 243.0 850.5 Z"/>
  </g>
</svg>